<svg width="24" height="24" viewBox="0 0 24 24" fill="none" xmlns="http://www.w3.org/2000/svg">
<path d="M6.96387 8.55908C7.08008 7.22607 7.5791 6.16992 8.46094 5.39062C9.34961 4.60449 10.4741 4.21143 11.8345 4.21143C13.2769 4.21143 14.4424 4.59766 15.3311 5.37012C16.2197 6.13574 16.6641 7.11328 16.6641 8.30273C16.6641 8.97266 16.5103 9.59473 16.2026 10.1689C15.9019 10.7432 15.3311 11.3789 14.4902 12.0762C13.6494 12.7734 13.1333 13.3306 12.9419 13.7476C12.7505 14.1577 12.6548 14.8447 12.6548 15.8086H10.8501C10.8501 14.5371 10.9971 13.6074 11.291 13.0195C11.585 12.4248 12.125 11.7925 12.9111 11.1226C13.7041 10.4526 14.1963 9.93994 14.3877 9.58447C14.5791 9.22217 14.6748 8.83936 14.6748 8.43604C14.6748 7.6499 14.415 7.00391 13.8955 6.49805C13.376 5.98535 12.6958 5.729 11.855 5.729C10.2144 5.729 9.25049 6.67236 8.96338 8.55908H6.96387ZM12.8701 19.5H10.7681V17.3979H12.8701V19.5Z" fill="#ACACAC"/>
<circle cx="12" cy="12" r="11.25" stroke="#ACACAC" stroke-width="1.5"/>
</svg>
