<?xml version="1.0" encoding="utf-8"?>
<!-- Generator: Adobe Illustrator 26.2.1, SVG Export Plug-In . SVG Version: 6.00 Build 0)  -->
<svg version="1.1" id="Layer_1" xmlns="http://www.w3.org/2000/svg" xmlns:xlink="http://www.w3.org/1999/xlink" x="0px" y="0px"
	 viewBox="0 0 46 46" style="enable-background:new 0 0 46 46;" xml:space="preserve">
<style type="text/css">
	.st0{fill:#969696;}
	.st1{fill:#006693;}
	.st2{fill:url(#SVGID_1_);}
	.st3{fill-rule:evenodd;clip-rule:evenodd;fill:#FFFFFF;}
</style>
<path class="st0" d="M0,23C0,10.3,10.3,0,23,0s23,10.3,23,23S35.7,46,23,46S0,35.7,0,23z"/>
<path class="st1" d="M5.3,23c0-9.8,7.9-17.7,17.7-17.7S40.7,13.2,40.7,23c0,9.8-7.9,17.7-17.7,17.7S5.3,32.8,5.3,23z"/>
<linearGradient id="SVGID_1_" gradientUnits="userSpaceOnUse" x1="5.9269" y1="51.0309" x2="28.075" y2="17.2575" gradientTransform="matrix(-1 0 0 1 46 -2)">
	<stop  offset="0" style="stop-color:#0078D7"/>
	<stop  offset="1" style="stop-color:#569DE5"/>
</linearGradient>
<path class="st2" d="M6.3,23c0-9.2,7.5-16.7,16.7-16.7c9.2,0,16.7,7.5,16.7,16.7c0,9.2-7.5,16.7-16.7,16.7
	C13.8,39.7,6.3,32.2,6.3,23z"/>
<path class="st3" d="M31.5,33V13l-13.9,9.8V13h-3.1v19.9h3.1v-9.7L31.5,33z"/>
</svg>
