<?xml version="1.0" encoding="utf-8"?>
<!-- Generator: Adobe Illustrator 26.2.1, SVG Export Plug-In . SVG Version: 6.00 Build 0)  -->
<svg version="1.1" id="Layer_1" xmlns="http://www.w3.org/2000/svg" xmlns:xlink="http://www.w3.org/1999/xlink" x="0px" y="0px"
	 viewBox="0 0 46 46" style="enable-background:new 0 0 46 46;" xml:space="preserve">
<style type="text/css">
	.st0{fill:#969696;}
	.st1{fill:url(#SVGID_1_);}
	.st2{fill:url(#SVGID_00000062900591117732849160000011261653656973367451_);}
	.st3{fill-rule:evenodd;clip-rule:evenodd;fill:#FFFFFF;}
</style>
<path class="st0" d="M46,23c0,12.7-10.3,23-23,23S0,35.7,0,23S10.3,0,23,0S46,10.3,46,23z"/>
<linearGradient id="SVGID_1_" gradientUnits="userSpaceOnUse" x1="23" y1="1016.027" x2="23" y2="980.1089" gradientTransform="matrix(1 0 0 1 0 -976)">
	<stop  offset="0" style="stop-color:#808080"/>
	<stop  offset="1" style="stop-color:#000000"/>
</linearGradient>
<path class="st1" d="M40.7,23c0,9.8-7.9,17.7-17.7,17.7S5.3,32.8,5.3,23S13.2,5.3,23,5.3C32.8,5.3,40.7,13.2,40.7,23z"/>
<linearGradient id="SVGID_00000121246840631125810290000002092514104638824885_" gradientUnits="userSpaceOnUse" x1="5.9333" y1="972.9634" x2="28.0714" y2="1006.7369" gradientTransform="matrix(1 0 0 1 0 -976)">
	<stop  offset="0" style="stop-color:#808080"/>
	<stop  offset="1" style="stop-color:#000000"/>
</linearGradient>
<path style="fill:url(#SVGID_00000121246840631125810290000002092514104638824885_);" d="M39.7,23c0,9.2-7.5,16.7-16.7,16.7
	S6.3,32.2,6.3,23S13.8,6.3,23,6.3C32.2,6.3,39.7,13.8,39.7,23z"/>
<path class="st3" d="M31.5,33V13l-13.9,9.8V13h-3.2v20h3.1v-9.7L31.5,33z"/>
</svg>
