<?xml version="1.0" encoding="utf-8"?>
<!-- Generator: Adobe Illustrator 26.2.1, SVG Export Plug-In . SVG Version: 6.00 Build 0)  -->
<svg version="1.2" baseProfile="tiny" id="Layer_1" xmlns="http://www.w3.org/2000/svg" xmlns:xlink="http://www.w3.org/1999/xlink"
	 x="0px" y="0px" viewBox="0 0 1024 1024" overflow="visible" xml:space="preserve">
<g>
	<g>
		
			<path fill="none" stroke="#000000" stroke-width="436.2131" stroke-linecap="round" stroke-linejoin="round" stroke-miterlimit="10" d="
			M531,616.4c-1.9,0-3.7,2.3-5.6,6.6c-0.6,1.2-1,2.3-1,2.9c0,0.6-0.4,1.2-1,1.9L514,793.3c-1.9,3.7-3.5,6-4.8,6.6
			c-1.2,0.6-3.7,1-7.4,1c-10.6,0-21.1,0.2-31.2,1c-10.3,0.6-19.2,0-27.1-1.9c-7.9-1.9-14.1-5.4-18.6-10.3c-4.8-5-7-13-7-24.2v-18.6
			l50.5-513.1c1.2-7.4,2.9-12.4,4.8-14.9s6.6-3.7,14.1-3.7c35.6,0,71.8,2.1,108.8,6c37,4.1,70.8,12.4,101,25.2
			c30.2,12.8,55,31.2,74.3,55.2c19.2,24,29,55.7,29,95c0,28.1-3.5,51.7-10.8,71c-7.2,19.2-16.3,35.4-27.5,48.2
			c-11.2,12.8-23.2,23-36,30.4c-12.8,7.4-24.8,13.2-36,17.4c-11.2,4.1-20.7,7.2-28.6,9.3c-7.9,2.3-12,4.1-12.6,6v3.7
			c0,14.9,6,28.1,17.8,39.3c11.8,11.2,24.8,22.1,38.7,32.7c14.1,10.6,26.9,21.1,38.7,31.9c11.8,10.6,17.8,22.8,17.8,36.4
			c0,7.4-2.3,15.3-6.6,23.4c-4.3,8.1-9.9,16.1-16.8,23.8c-6.8,7.9-14.3,15.1-21.9,21.9c-7.9,6.8-15.1,12.4-21.9,16.8
			c-6.8-1.9-14.9-7.9-23.8-18.2c-9.1-10.3-18.8-22.6-29.4-36.8c-10.6-14.3-21.5-29.4-32.7-45.3c-11.2-15.9-21.7-30.6-31.9-43.9
			c-9.9-13.4-19-24.6-27.1-33.7C541.5,620.9,535.3,616.4,531,616.4z M534.7,478c0,5.6,2.7,9.9,7.9,13c5.4,3.1,11.6,5.2,18.6,6
			c7.2,1,14.3,1.4,21.5,1.4s12.6,0,16.3,0c16.8,0,31.7-2.9,44.5-8.9c12.8-6,23.2-13.7,31.2-23.4c8.1-9.7,14.1-21.1,18.2-34.1
			c4.1-13,6-26.7,6-41.2V364c-4.3-9.9-11.2-18.8-20.5-26.7s-19.9-14.3-31.2-19.7c-11.6-5.4-23.6-9.1-36-11.6
			c-12.4-2.5-24-3.7-34.6-3.7c-4.3,0-9.1,0.4-14.1,1c-5,0.6-8.7,2.5-11.2,5.6L534.7,478z"/>
	</g>
</g>
<g>
	<g>
		<path fill="#FCEE21" stroke="#D3D3D3" stroke-width="300.4167" stroke-miterlimit="10" d="M531,616.4c-1.9,0-3.7,2.3-5.6,6.6
			c-0.6,1.2-1,2.3-1,2.9c0,0.6-0.4,1.2-1,1.9L514,793.3c-1.9,3.7-3.5,6-4.8,6.6c-1.2,0.6-3.7,1-7.4,1c-10.6,0-21.1,0.2-31.2,1
			c-10.3,0.6-19.2,0-27.1-1.9c-7.9-1.9-14.1-5.4-18.6-10.3c-4.8-5-7-13-7-24.2v-18.6l50.5-513.1c1.2-7.4,2.9-12.4,4.8-14.9
			s6.6-3.7,14.1-3.7c35.6,0,71.8,2.1,108.8,6c37,4.1,70.8,12.4,101,25.2c30.2,12.8,55,31.2,74.3,55.2c19.2,24,29,55.7,29,95
			c0,28.1-3.5,51.7-10.8,71c-7.2,19.2-16.3,35.4-27.5,48.2c-11.2,12.8-23.2,23-36,30.4c-12.8,7.4-24.8,13.2-36,17.4
			c-11.2,4.1-20.7,7.2-28.6,9.3c-7.9,2.3-12,4.1-12.6,6v3.7c0,14.9,6,28.1,17.8,39.3c11.8,11.2,24.8,22.1,38.7,32.7
			c14.1,10.6,26.9,21.1,38.7,31.9c11.8,10.6,17.8,22.8,17.8,36.4c0,7.4-2.3,15.3-6.6,23.4c-4.3,8.1-9.9,16.1-16.8,23.8
			c-6.8,7.9-14.3,15.1-21.9,21.9c-7.9,6.8-15.1,12.4-21.9,16.8c-6.8-1.9-14.9-7.9-23.8-18.2c-9.1-10.3-18.8-22.6-29.4-36.8
			c-10.6-14.3-21.5-29.4-32.7-45.3c-11.2-15.9-21.7-30.6-31.9-43.9c-9.9-13.4-19-24.6-27.1-33.7C541.5,620.9,535.3,616.4,531,616.4z
			 M534.7,478c0,5.6,2.7,9.9,7.9,13c5.4,3.1,11.6,5.2,18.6,6c7.2,1,14.3,1.4,21.5,1.4s12.6,0,16.3,0c16.8,0,31.7-2.9,44.5-8.9
			c12.8-6,23.2-13.7,31.2-23.4c8.1-9.7,14.1-21.1,18.2-34.1c4.1-13,6-26.7,6-41.2V364c-4.3-9.9-11.2-18.8-20.5-26.7
			s-19.9-14.3-31.2-19.7c-11.6-5.4-23.6-9.1-36-11.6c-12.4-2.5-24-3.7-34.6-3.7c-4.3,0-9.1,0.4-14.1,1c-5,0.6-8.7,2.5-11.2,5.6
			L534.7,478z"/>
	</g>
</g>
<g>
	<g>
		<path d="M517.7,634.1c-2.2,0-4.4,2.7-6.5,7.7c-0.7,1.5-1.2,2.7-1.2,3.4c0,0.7-0.5,1.5-1.2,2.2l-10.9,193.6c-2.2,4.4-4.1,7-5.6,7.7
			c-1.5,0.7-4.4,1.2-8.7,1.2c-12.3,0-24.7,0.2-36.6,1.2c-12.1,0.7-22.5,0-31.7-2.2s-16.5-6.3-21.8-12.1c-5.6-5.8-8.2-15.2-8.2-28.3
			v-21.8l59.1-600.3c1.5-8.7,3.4-14.5,5.6-17.4c2.2-2.9,7.7-4.4,16.5-4.4c41.6,0,84,2.4,127.3,7c43.3,4.8,82.8,14.5,118.1,29.5
			c35.3,15,64.4,36.6,86.9,64.6c22.5,28.1,33.9,65.1,33.9,111.1c0,32.9-4.1,60.5-12.6,83c-8.5,22.5-19.1,41.4-32.2,56.4
			c-13.1,15-27.1,26.9-42.1,35.6c-15,8.7-29,15.5-42.1,20.3s-24.2,8.5-33.4,10.9c-9.2,2.7-14,4.8-14.8,7v4.4c0,17.4,7,32.9,20.8,46
			s29,25.9,45.3,38.2c16.5,12.3,31.5,24.7,45.3,37.3c13.8,12.3,20.8,26.6,20.8,42.6c0,8.7-2.7,17.9-7.7,27.4
			c-5.1,9.4-11.6,18.9-19.6,27.8c-8,9.2-16.7,17.7-25.7,25.7c-9.2,8-17.7,14.5-25.7,19.6c-8-2.2-17.4-9.2-27.8-21.3
			c-10.7-12.1-22-26.4-34.4-43.1c-12.3-16.7-25.2-34.4-38.2-53c-13.1-18.6-25.4-35.8-37.3-51.3c-11.6-15.7-22.3-28.8-31.7-39.5
			C530.1,639.4,522.8,634.1,517.7,634.1z M522.1,472.2c0,6.5,3.1,11.6,9.2,15.2c6.3,3.6,13.6,6.1,21.8,7c8.5,1.2,16.7,1.7,25.2,1.7
			c8.5,0,14.8,0,19.1,0c19.6,0,37-3.4,52-10.4c15-7,27.1-16,36.6-27.4c9.4-11.4,16.5-24.7,21.3-39.9s7-31.2,7-48.2v-31.5
			c-5.1-11.6-13.1-22-24-31.2c-10.9-9.2-23.2-16.7-36.6-23c-13.6-6.3-27.6-10.7-42.1-13.6c-14.5-2.9-28.1-4.4-40.4-4.4
			c-5.1,0-10.7,0.5-16.5,1.2c-5.8,0.7-10.2,2.9-13.1,6.5L522.1,472.2z"/>
	</g>
</g>
<circle fill="#D40000" cx="108.6" cy="108.6" r="108.6"/>
</svg>
