<?xml version="1.0" encoding="utf-8"?>
<!-- Generator: Adobe Illustrator 26.2.1, SVG Export Plug-In . SVG Version: 6.00 Build 0)  -->
<svg version="1.1" id="Layer_1" xmlns="http://www.w3.org/2000/svg" xmlns:xlink="http://www.w3.org/1999/xlink" x="0px" y="0px"
	 viewBox="0 0 46 46" style="enable-background:new 0 0 46 46;" xml:space="preserve">
<style type="text/css">
	.st0{fill:#969696;}
	.st1{fill:url(#SVGID_1_);}
	.st2{fill:url(#SVGID_00000025409298665193072270000015772901253905719959_);}
	.st3{fill-rule:evenodd;clip-rule:evenodd;fill:#FFFFFF;}
</style>
<path class="st0" d="M46,23c0,12.7-10.3,23-23,23S0,35.7,0,23S10.3,0,23,0S46,10.3,46,23z"/>
<linearGradient id="SVGID_1_" gradientUnits="userSpaceOnUse" x1="5.3418" y1="25" x2="40.6786" y2="25" gradientTransform="matrix(1 0 0 -1 0 48)">
	<stop  offset="0" style="stop-color:#808080"/>
	<stop  offset="1" style="stop-color:#000000"/>
</linearGradient>
<path class="st1" d="M40.7,23c0,9.8-7.9,17.7-17.7,17.7S5.3,32.8,5.3,23c0-9.8,7.9-17.7,17.7-17.7S40.7,13.2,40.7,23z"/>
<linearGradient id="SVGID_00000175314356660327733300000001034582308589341111_" gradientUnits="userSpaceOnUse" x1="5.9322" y1="51.0359" x2="28.0803" y2="17.2625" gradientTransform="matrix(1 0 0 -1 0 48)">
	<stop  offset="0" style="stop-color:#808080"/>
	<stop  offset="1" style="stop-color:#000000"/>
</linearGradient>
<path style="fill:url(#SVGID_00000175314356660327733300000001034582308589341111_);" d="M39.7,23c0,9.2-7.5,16.7-16.7,16.7
	c-9.2,0-16.7-7.5-16.7-16.7c0-9.2,7.5-16.7,16.7-16.7C32.2,6.3,39.7,13.8,39.7,23z"/>
<path class="st3" d="M14.4,13v20l13.9-9.8v9.8h3.1V13.1h-3.1v9.7L14.4,13z"/>
</svg>
