<svg width="164" height="62" viewBox="0 0 164 62" fill="none" xmlns="http://www.w3.org/2000/svg">
<path d="M163.966 24.9834C163.925 24.0071 163.858 23.0571 163.773 22.1671C163.702 21.4161 163.643 20.7665 163.594 20.207C163.583 20.0831 163.568 19.963 163.553 19.8391C163.539 19.5499 163.52 19.2908 163.494 19.0505C163.49 18.9491 163.486 18.8365 163.479 18.7126C163.442 18.0029 163.334 17.3007 163.156 16.606C162.836 15.3744 162.26 14.2667 161.445 13.3054C159.884 11.473 157.605 10.5417 155.178 10.752L153.371 10.9022C153.349 10.9022 153.326 10.9059 153.304 10.9097C152.032 11.0261 150.835 11.4467 149.798 12.1226C149.211 12.0324 148.612 12.0174 148.014 12.0775L145.913 12.2577C145.787 12.269 145.657 12.284 145.53 12.3028C145.162 12.3554 144.802 12.4342 144.452 12.5394C144.322 12.5018 144.192 12.468 144.058 12.438C142.924 12.1789 141.72 12.085 140.482 12.1639C140.322 12.1714 140.147 12.1789 139.932 12.1939C139.686 12.2127 139.396 12.2427 139.073 12.299C138.601 11.9686 138.11 11.6607 137.593 11.3866C135.824 10.4516 133.85 9.97847 131.723 9.97847C130.667 9.97847 129.63 10.0799 128.626 10.2751C128.273 8.55533 127.351 7.01954 125.961 5.91182C124.961 5.11952 123.805 4.58631 122.511 4.32346C121.834 4.18828 121.124 4.11694 120.407 4.11694H119.607C119.225 4.11694 118.804 4.13947 118.321 4.18453C117.455 4.26714 116.637 4.49244 115.89 4.83414C115.187 4.44738 114.514 4.21832 113.979 4.06437C113.455 3.91042 112.879 3.76397 112.261 3.62879C111.655 3.49737 111.049 3.38847 110.455 3.30211C109.678 3.18946 109.083 3.14064 108.529 3.14064C106.105 3.14064 103.856 4.39481 102.506 6.51262C101.99 7.32745 101.64 8.12726 101.436 8.96087C101.358 9.28004 101.302 9.60297 101.272 9.92965C101.109 11.6382 100.956 13.219 100.819 14.6797C100.644 14.691 100.469 14.706 100.294 14.7248C100.079 14.3868 99.8557 14.0939 99.6438 13.8348C99.3278 13.4481 98.9747 13.0613 98.5843 12.6896C98.2163 12.3366 97.8334 12.0137 97.4393 11.717C95.5099 10.2751 93.6288 10.1136 92.3908 10.2376C92.0599 10.2714 91.729 10.3277 91.4056 10.4103C90.5171 10.6356 89.6658 11.0449 88.9037 11.6044L86.372 11.6232C86.1266 11.6232 85.8701 11.6382 85.6173 11.6607C85.6024 11.6607 85.5875 11.6607 85.5764 11.6645C83.2603 11.9085 80.7362 18.1112 79.6915 20.184C78.8328 19.985 77.9331 19.9211 77 20C76.7175 20.0225 76.4349 20.0638 76.1598 20.1164C75.7211 20.0601 75.2825 20.0376 74.8401 20.0526C73.7508 19.5757 72.5798 19.3279 71.3492 19.3091C71.457 18.7646 72.0108 13.4556 71.9997 13.005C71.9699 10.8158 70.8844 8.73557 69.0219 7.45136L68.9921 7.42883C68.6092 7.16223 68.2003 6.93693 67.769 6.76045L67.111 6.48633C66.1853 6.09206 65.1704 5.82921 64.0923 5.69779C64.07 5.64146 64.0551 5.58889 64.0328 5.53257C63.635 4.51121 63.0625 3.58373 62.3301 2.76515C61.4045 1.73628 60.2669 0.974019 58.936 0.485871C57.5196 -0.0285613 55.999 -0.133701 54.4191 0.166698C53.367 0.365712 52.3298 0.737455 51.3372 1.27066C51.2219 1.33074 51.1141 1.39833 51.0026 1.46217C50.062 1.24438 49.1029 1.19556 48.1735 1.32699C45.389 1.68747 43.1212 3.39223 42.0729 5.92684C41.6788 6.88436 41.4409 7.87568 41.3665 8.8745C41.3554 9.04723 41.3479 9.22372 41.3479 9.39645V10.0235C40.1992 9.91463 39.0021 9.97471 37.7604 10.2113C36.0243 10.538 34.4741 11.2026 33.1469 12.1864C33.0651 11.9048 32.9647 11.6307 32.8495 11.3603C32.7045 11.0111 32.5297 10.6769 32.3253 10.3577C31.7751 9.48281 31.1133 8.86699 30.4813 8.33003C29.972 7.89821 29.4032 7.47765 28.7973 7.07962C28.2099 6.69661 27.6151 6.35491 27.0165 6.06202C24.6633 4.90549 22.6781 5.10075 21.4327 5.46873C21.1204 5.56261 20.8155 5.67526 20.5181 5.81419C19.4177 6.32112 18.4697 7.07587 17.7002 8.05592C17.399 8.43893 17.1388 8.84822 16.9195 9.27629C16.8674 9.37392 16.8154 9.4753 16.7671 9.57668C16.7187 9.59921 16.6667 9.61799 16.6184 9.64427C15.5625 10.1512 14.6517 10.936 13.9677 11.9348C13.7632 12.2315 13.5848 12.5469 13.4324 12.8736L13.2762 13.2078C13.2651 13.2303 13.2576 13.2491 13.2465 13.2716C13.0717 13.1552 12.8896 13.0463 12.7037 12.9449L12.5513 12.8623C11.0271 12.0475 9.25376 11.856 7.5957 12.3328C7.41354 12.3854 7.22022 12.4305 7.0269 12.468C6.33914 12.5994 5.6551 12.7759 4.99337 12.9975C4.8521 13.0425 4.71455 13.0951 4.577 13.1514C3.85206 13.4481 3.26096 13.7785 2.72191 14.1916C2.70332 14.2066 2.68473 14.2178 2.66986 14.2329C0.268279 16.0841 -0.609078 19.2458 0.431854 22.1709C0.602865 22.6666 0.818486 23.1547 1.07872 23.6278C1.14935 23.7593 1.26088 23.962 1.40587 24.2361C1.55086 24.5103 1.74417 24.897 1.9821 25.3814C2.25349 25.9371 2.61781 26.6769 3.06393 27.6044C3.51376 28.5318 4.06396 29.6809 4.71083 31.0514C5.36141 32.422 6.14211 34.1042 7.04177 36.0531L7.04921 36.0643C7.2165 36.4699 7.41725 36.8641 7.65146 37.2472C8.02322 37.863 8.47677 38.4262 8.98609 38.9106C10.3058 40.1723 12.0531 40.8632 13.8339 40.8632C14.2577 40.8632 14.6852 40.8257 15.109 40.743C15.2986 40.7055 15.4882 40.6642 15.6778 40.6079C15.8191 40.5666 16.0681 40.5065 16.4473 40.4351C17.2689 40.2812 18.0719 40.0634 18.834 39.793C19.2207 39.6579 19.5887 39.4851 19.9382 39.2861C20.8639 39.3612 21.8081 39.2448 22.7227 38.9144L25.7971 37.8104C25.9235 37.7653 26.0462 37.709 26.1726 37.6527C26.8492 37.848 27.5481 37.9493 28.247 37.9493C28.801 37.9493 29.3586 37.8855 29.9088 37.7616C30.3624 37.6564 30.8196 37.525 31.2658 37.3711C31.6858 37.2246 32.0873 37.0557 32.4665 36.8566C32.79 36.9092 33.1208 36.9392 33.4517 36.9505C34.2138 36.9768 34.9834 36.8942 35.7492 36.7102C36.2102 36.5975 36.6563 36.4549 37.0764 36.2821C37.1842 36.2446 37.292 36.1995 37.3961 36.1582C37.608 36.1883 37.8199 36.2108 38.0355 36.2296L36.5708 51.2758C36.5485 51.4973 36.5373 51.7151 36.5373 51.9366V52.6876C36.5373 55.4551 37.6749 57.2612 38.6229 58.2826C39.7047 59.4504 41.11 60.269 42.6863 60.6482C43.6343 60.8773 44.6566 60.9636 45.7384 60.8998C46.0061 60.8848 46.2886 60.8735 46.5749 60.8735C47.7682 60.8735 48.8315 60.6332 49.8204 60.145L49.8836 60.115C50.0062 60.0512 50.1289 59.9836 50.2479 59.916C50.9505 60.3816 51.694 60.7233 52.4747 60.9373C53.0547 61.095 53.6458 61.1739 54.2332 61.1739C55.3001 61.1739 56.3597 60.9111 57.3151 60.4116C57.5419 60.528 57.7723 60.6482 58.0103 60.7533C59.0475 61.2077 60.1851 61.5381 61.3859 61.7409C62.4156 61.9136 63.4454 62 64.4566 62C65.7392 62 66.9846 61.8198 68.1742 61.4593C69.0256 61.7184 69.9327 61.8498 70.8881 61.8498H71.3156C71.7655 61.8498 72.2302 61.8235 72.706 61.7709C73.2934 61.7034 73.8622 61.5945 74.4161 61.4368C75.208 61.2077 75.9292 60.851 76.5649 60.4004C77.2675 60.5055 77.985 60.5393 78.71 60.4792L79.8364 60.3891C80.2602 60.6069 80.7026 60.7834 81.1599 60.9261C82.0818 61.2077 83.067 61.3504 84.1042 61.3504C84.4462 61.3504 84.792 61.3354 85.1414 61.3053C85.2121 61.2978 85.2827 61.2903 85.3533 61.2828C86.3422 61.1626 87.2419 60.9148 88.0523 60.5356C88.5579 60.6595 89.0821 60.7308 89.6249 60.7308H92.8964C94.5879 60.7308 96.1381 60.0925 97.3203 59.0373C97.4876 59.0974 97.6512 59.1537 97.8222 59.2063C99.3799 59.6944 101.034 59.9423 102.748 59.9423C104.927 59.9423 106.96 59.5818 108.789 58.8721C110.748 58.1136 112.455 56.9984 113.86 55.5527C115.243 54.1333 116.306 52.4473 117.02 50.5398C117.689 48.7524 118.027 46.7998 118.027 44.7346C118.027 43.5105 117.86 42.2826 117.533 41.0697C117.656 41.0772 117.782 41.0847 117.905 41.0847C118.674 41.0847 119.455 40.9721 120.232 40.7468C121.857 40.3863 123.299 39.4739 124.347 38.1296C124.485 38.1784 124.619 38.2235 124.76 38.2685C126.318 38.7567 127.972 39.0045 129.686 39.0045C131.864 39.0045 133.898 38.644 135.727 37.9343C136.084 37.7954 136.43 37.6414 136.768 37.48C137.575 38.3774 138.519 39.1472 139.597 39.778C141.259 40.7543 143.199 41.2462 145.374 41.2462C145.761 41.2462 146.155 41.2312 146.556 41.2012C146.571 41.2012 146.586 41.2012 146.601 41.2012C147.575 41.1185 148.508 40.882 149.393 40.4877C150.627 40.882 151.977 41.0172 153.408 40.9008C153.665 40.8782 153.869 40.8632 154.051 40.8482C155.025 40.7768 155.984 40.5177 156.988 40.0559C157.007 40.0484 157.025 40.0371 157.044 40.0296C158.825 39.1922 160.286 37.9568 161.393 36.346C162.252 35.0993 162.892 33.6874 163.304 32.1479C163.624 30.9463 163.836 29.6771 163.925 28.3741C164.003 27.2439 164.022 26.1061 163.973 24.9909L163.966 24.9834ZM15.2503 10.6694C15.3767 10.553 15.5031 10.4403 15.6332 10.3389C15.5031 10.4441 15.3729 10.553 15.2503 10.6694ZM15.2168 10.7032C15.1053 10.8083 15.0012 10.9135 14.8971 11.0261C15.0012 10.9097 15.109 10.8046 15.2168 10.7032ZM14.5662 11.4166C14.6443 11.319 14.7224 11.2289 14.8042 11.1388C14.7224 11.2289 14.6443 11.3228 14.5662 11.4166Z" fill="black"/>
<path d="M160.628 22.9401C160.591 22.0465 160.531 21.1866 160.453 20.3792C160.379 19.6095 160.319 18.9411 160.267 18.3703C160.26 18.2877 160.249 18.2051 160.23 18.1225C160.226 18.0624 160.223 17.9836 160.219 17.8897C160.208 17.5893 160.189 17.3565 160.163 17.165C160.163 17.0486 160.156 16.8984 160.144 16.7069C160.126 16.3314 160.066 15.9559 159.973 15.5916C159.84 15.0772 159.602 14.6191 159.271 14.2286C158.732 13.5977 157.929 13.2786 157.077 13.3574L155.237 13.5076C154.312 13.594 153.732 14.0333 153.408 14.3863C153.088 14.7355 152.847 15.141 152.687 15.5954C152.609 15.8207 152.549 16.0535 152.508 16.2826C152.378 15.9559 152.174 15.648 151.888 15.3588C151.363 14.8331 150.668 14.5853 149.966 14.6717L147.817 14.8557C147.78 14.8557 147.746 14.8632 147.709 14.8669C147.032 14.9646 146.453 15.3175 146.073 15.8545C145.676 15.4001 145.133 15.081 144.482 14.9308C143.776 14.7693 143.006 14.713 142.203 14.7731C142.103 14.7731 141.962 14.7843 141.779 14.7956C141.456 14.8181 141.107 14.8669 140.753 15.0434C140.653 15.0922 140.556 15.1523 140.467 15.2236C140.177 15.4452 139.943 15.693 139.761 15.9634C139.66 15.8282 139.564 15.6893 139.456 15.5616C138.746 14.698 137.865 13.9883 136.846 13.4475C135.776 12.8805 134.552 12.5952 133.214 12.5952C131.623 12.5952 130.114 12.9068 128.727 13.5264C127.374 14.1309 126.165 14.9533 125.143 15.9709C124.942 16.1699 124.753 16.3764 124.571 16.5867L125.429 9.83149C125.441 9.75264 125.444 9.67379 125.444 9.59118C125.444 8.73879 125.099 7.99531 124.47 7.49214C124.069 7.17297 123.593 6.95893 123.054 6.84628C122.686 6.77118 122.295 6.73363 121.89 6.73363H121.091C120.86 6.73363 120.589 6.74865 120.262 6.77869C119.318 6.86881 118.578 7.39076 118.228 8.20559C118.158 8.37456 118.109 8.55104 118.091 8.73128L117.619 12.8317L116.094 8.03661C116.002 7.75123 115.845 7.48839 115.633 7.27811C115.291 6.9364 114.838 6.69984 114.117 6.48956C113.697 6.36565 113.228 6.24924 112.726 6.13659C112.228 6.0277 111.734 5.93758 111.258 5.86999C110.723 5.79489 110.325 5.75734 110.012 5.75734C109.228 5.75734 108.514 6.16663 108.057 6.88383C107.83 7.24431 107.689 7.55597 107.611 7.86013C107.589 7.95025 107.574 8.03661 107.566 8.13049C107.243 11.51 106.964 14.4051 106.73 16.8195C106.641 17.747 106.555 18.6219 106.473 19.4367C106.15 18.8735 105.726 18.3891 105.198 18.0023C104.544 17.5217 103.748 17.2776 102.834 17.2776C102.139 17.2776 101.503 17.4278 100.949 17.7207C100.518 17.9498 100.135 18.2464 99.8039 18.5956C99.6775 18.4717 99.5474 18.3591 99.4061 18.2539C98.96 17.9347 98.4432 17.7583 97.893 17.7395C97.9079 17.5855 97.9228 17.4316 97.9376 17.2851C97.9711 16.9622 98.0008 16.7181 98.0306 16.5604C98.0492 16.459 98.0566 16.3539 98.0566 16.2525C98.0566 16.1098 98.0417 15.9671 98.0083 15.8169C97.986 15.7005 97.9525 15.5841 97.9079 15.4715C97.7926 15.1861 97.6253 14.9495 97.3874 14.6566C97.2015 14.4276 96.9859 14.1985 96.748 13.9695C96.5175 13.7479 96.2796 13.5452 96.0416 13.3687C95.484 12.9519 94.9115 12.7679 94.339 12.8242C94.246 12.8317 94.1568 12.8505 94.0639 12.873C93.6996 12.9669 93.365 13.1434 93.0638 13.4062C92.8036 13.6353 92.6103 13.9094 92.4839 14.2098L87.8815 14.2361C87.7885 14.2361 87.6807 14.2398 87.5543 14.2549C86.8182 14.3337 86.1862 14.8144 85.9149 15.5128C85.8888 15.5804 85.8665 15.6517 85.8479 15.7193C85.7253 16.1812 85.6621 16.6656 85.6621 17.1575C85.6621 17.5705 85.6881 17.9723 85.7401 18.3516C85.755 18.4604 85.781 18.5693 85.8145 18.6745L85.8554 18.7984C86.1528 19.6996 87.0116 20.2403 87.9596 20.1277L88.2532 20.0976L88.3016 21.8324C87.8778 21.5621 87.4688 21.502 87.2012 21.502C86.7067 21.502 86.2346 21.701 85.8851 22.0502L85.8665 22.069C84.7884 22.8951 83.9743 23.6686 83.3794 24.4309C83.2642 24.5773 83.1638 24.7275 83.0597 24.874L80.7957 27.2101C80.7957 27.1725 80.7957 27.1312 80.7957 27.0937V26.7745C80.7957 26.7032 80.792 26.6318 80.7846 26.5605C80.7437 26.1887 80.6693 25.8245 80.5652 25.479C80.4239 25.0097 80.2046 24.5929 79.9146 24.2361C79.58 23.8231 79.1525 23.5077 78.6432 23.2974C78.1451 23.0909 77.5688 23.0158 76.974 23.0721C76.5948 23.0984 76.2342 23.1998 75.8996 23.3725C75.8847 23.365 75.8699 23.3612 75.855 23.3575C75.3643 23.1772 74.8624 23.1096 74.3605 23.1547C74.3122 23.1585 74.2601 23.166 74.2118 23.1735C74.0259 23.2035 73.7954 23.2749 73.5464 23.4138C73.301 23.211 73.0333 23.027 72.7434 22.8731C72.1485 22.5577 71.4794 22.4 70.7544 22.4C69.9551 22.4 69.1893 22.5577 68.4867 22.8731C67.8472 23.1585 67.2785 23.5452 69.2265 18.7383C69.2265 18.4905 69.2153 18.2427 69.1707 17.9948C69.0555 17.364 68.7915 16.7482 68.3975 16.1662C68.0963 15.7231 67.7209 15.3288 67.2785 14.9946C67.0628 14.713 66.7989 14.4877 66.494 14.3225C66.5833 14.2699 66.6725 14.2098 66.758 14.146C67.0889 13.8906 67.3231 13.5377 67.4272 13.1471C67.561 13.0007 67.6725 12.8392 67.758 12.6628C68.2004 12.0845 68.2897 11.5438 68.2673 11.1307C68.2525 10.6914 68.0889 10.0681 67.39 9.58742L67.3602 9.56489C67.2524 9.48979 67.1409 9.42971 67.0219 9.37714L66.3565 9.09927C65.6799 8.80638 64.8917 8.64116 64.0107 8.5961C63.2077 8.55855 62.4121 8.61488 61.6388 8.75757C61.3526 8.81014 61.0812 8.87397 60.8172 8.94156C60.8321 8.87773 60.8507 8.81389 60.8619 8.75006C61.0403 7.86764 61.0738 7.13917 60.9585 6.5196C60.8953 6.17039 60.7875 5.80615 60.6425 5.43065C60.4566 4.95753 60.1927 4.52946 59.8581 4.15396C59.4677 3.72214 58.9845 3.39545 58.4082 3.18893C57.8097 2.97114 57.1368 2.93359 56.4082 3.07253C55.8394 3.18142 55.2631 3.38794 54.7018 3.68834C54.1664 3.97748 53.6794 4.32293 53.2519 4.71721C53.0846 4.87492 52.9322 5.04014 52.7909 5.20911C52.7463 5.17532 52.7054 5.13401 52.6571 5.10022C52.3002 4.84112 51.9136 4.63084 51.5121 4.47313C50.9618 4.2591 50.4265 4.19151 49.9172 4.27412C48.8428 4.40554 48.0138 4.99883 47.6346 5.91129C47.4375 6.38442 47.3223 6.86881 47.2851 7.3457C47.2851 7.39451 47.2814 7.44333 47.2814 7.49214L47.2926 11.3748C47.1513 11.3973 47.0137 11.4236 46.8799 11.4536C46.3446 11.5738 45.865 11.7841 45.4598 12.0732C44.9096 12.4637 44.549 13.042 44.4151 13.7141C44.0396 13.5226 43.6456 13.3537 43.2218 13.226C42.192 12.9106 41.0247 12.873 39.7495 13.1171C38.6156 13.3311 37.6416 13.7705 36.8535 14.4276C36.1248 15.0359 35.5412 15.7418 35.1248 16.5266C35.0393 16.6843 34.9649 16.8496 34.8943 17.011C34.4779 16.583 34.0095 16.2375 33.4853 15.9934C32.6898 15.6217 31.8013 15.5729 30.9165 15.8507C30.9016 15.8545 30.8904 15.8582 30.8793 15.862C30.5819 15.9634 30.3031 16.0835 30.0465 16.2262C30.0205 16.0272 29.9982 15.8244 29.9722 15.6217C29.8904 14.8895 29.8235 14.2023 29.7789 13.5752C29.7194 12.8092 29.7045 12.3999 29.7008 12.1934C29.7008 12.0882 29.6897 11.9869 29.6711 11.8855C29.6413 11.7203 29.5893 11.5625 29.5186 11.4048C29.474 11.2959 29.422 11.1908 29.3588 11.0932C29.1878 10.8228 28.9573 10.5825 28.474 10.1732C28.1245 9.87655 27.723 9.57991 27.2844 9.29453C26.8531 9.01291 26.4256 8.76883 26.0055 8.56231C25.7155 8.41962 24.8344 7.9878 23.8865 8.26567C23.801 8.29195 23.7154 8.32199 23.6337 8.35954C23.2322 8.54729 22.879 8.82891 22.5853 9.20066C22.444 9.37714 22.3325 9.56865 22.247 9.76766C22.2098 9.85402 22.1764 9.94414 22.1503 10.0418C22.05 10.3947 22.0351 10.7665 22.1094 11.1307L22.1206 11.1795C22.1317 11.2246 22.1429 11.2734 22.1578 11.3185C22.1689 11.371 22.1801 11.4274 22.1949 11.4837C21.8083 11.5475 21.4254 11.6301 21.0611 11.7315C20.7005 11.8329 20.4514 11.908 20.3101 11.9531C20.2878 11.9606 20.2618 11.9681 20.2395 11.9793C20.0871 12.0169 19.9421 12.077 19.8082 12.1521C19.5071 12.2985 19.2469 12.5238 19.0498 12.8092C18.9941 12.8918 18.942 12.9782 18.9011 13.0683L18.745 13.4025C18.6074 13.6954 18.548 14.0221 18.5703 14.345L19.0015 20.2779C18.8974 20.2516 18.7933 20.2328 18.6855 20.2215C18.284 20.1727 17.8639 20.1802 17.4252 20.2478C17.0572 20.3041 16.6966 20.3943 16.3471 20.5107C16.046 20.6121 15.8044 20.7022 15.6036 20.7885C15.3397 20.9012 15.1092 21.0739 14.927 21.2879C14.9084 21.2504 14.8861 21.2091 14.8675 21.1678C14.5515 20.5445 14.2355 19.9286 13.9195 19.3203C13.611 18.7233 13.321 18.1563 13.0496 17.6156C12.7782 17.0786 12.544 16.6017 12.3395 16.1849C12.1685 15.832 11.886 15.5391 11.5403 15.3551L11.3878 15.2725C10.964 15.0472 10.4733 14.9946 10.0123 15.126C9.68888 15.2199 9.3543 15.2987 9.01228 15.3626C8.53642 15.4527 8.06429 15.5766 7.61074 15.7268C7.57356 15.7381 7.53267 15.7531 7.49549 15.7681C7.16462 15.9033 6.9267 16.031 6.71479 16.1962C6.1683 16.6205 5.68501 17.5142 6.10139 18.6444C6.17946 18.881 6.28727 19.1213 6.41738 19.3579C6.49545 19.5043 6.61813 19.7296 6.77799 20.0338C6.94157 20.3379 7.15347 20.766 7.42114 21.3067C7.69624 21.87 8.06429 22.6172 8.51784 23.556C8.97138 24.4947 9.52903 25.6587 10.1833 27.0443C10.8376 28.4299 11.6295 30.1272 12.5329 32.0873C12.5477 32.1173 12.5626 32.1474 12.5775 32.1774C12.6555 32.3839 12.7559 32.5942 12.8786 32.797C13.0273 33.0448 13.2095 33.2701 13.4177 33.4654C13.8377 33.8671 14.3731 34.0812 14.927 34.0812C15.0608 34.0812 15.1947 34.0699 15.3322 34.0436C15.3843 34.0324 15.4363 34.0211 15.4884 34.0061C15.8304 33.9084 16.2282 33.8183 16.6668 33.7357C17.2468 33.6268 17.8119 33.4729 18.3435 33.2851C19.0089 33.0486 19.4848 32.4515 19.574 31.7456L19.6372 31.2199L20.1503 31.847C20.6484 32.4515 21.47 32.6806 22.2024 32.4177L25.2768 31.3137C25.7527 31.141 26.1393 30.7843 26.3475 30.3224L26.4814 30.022C26.604 29.7479 26.6598 29.4475 26.6449 29.1471L26.5966 28.2159C26.6821 28.5238 26.7639 28.8317 26.8457 29.1283C26.8754 29.2448 26.92 29.3574 26.9721 29.4625L27.0018 29.5452C27.1133 30.0295 27.4108 30.4501 27.8308 30.7167C28.3885 31.0659 28.9127 31.1748 29.3476 31.1748C29.5707 31.1748 29.7714 31.1448 29.9387 31.1072C30.2324 31.0396 30.5261 30.9533 30.7863 30.8632C31.8905 30.4914 32.437 29.808 32.7046 29.2448C32.9277 29.5189 33.2102 29.7404 33.5374 29.8944C33.9054 30.0671 34.2995 30.161 34.7159 30.176C35.0467 30.1873 35.385 30.1535 35.7233 30.0709C36.0059 30.0033 36.2661 29.9131 36.5003 29.808C36.965 29.6728 37.3479 29.3912 37.6193 29.0195C37.913 29.1471 38.2253 29.2523 38.5599 29.3274C39.0729 29.4438 39.6231 29.5038 40.2031 29.5038C40.2588 29.5038 40.3146 29.5038 40.3704 29.5038C40.9615 29.4926 41.5414 29.4325 42.0953 29.3274C42.8537 29.1847 43.5601 28.9181 44.1884 28.5351C44.4077 28.3999 44.627 28.3098 44.8501 28.2572C44.891 28.2722 44.9319 28.2797 44.9728 28.291C44.9356 28.4337 44.9021 28.5839 44.8761 28.7491C44.8687 28.7904 44.865 28.8317 44.8612 28.873L42.8537 49.4879C42.8463 49.5479 42.8463 49.6118 42.8463 49.6719V50.4229C42.8463 51.3654 43.1102 52.1239 43.627 52.6834C44.0657 53.1565 44.627 53.4757 45.2925 53.6371C45.7758 53.7535 46.3223 53.7986 46.9171 53.761C47.2814 53.7385 47.6643 53.7272 48.0472 53.7272C48.3521 53.7272 48.7536 53.701 49.1811 53.4907C49.7425 53.2053 50.0287 52.7247 50.1923 52.3905C50.3038 52.1614 50.3707 51.9136 50.3856 51.6582L50.5418 48.8796C50.6161 48.9847 50.6905 49.0936 50.7685 49.1987C51.2407 49.8709 51.6719 50.4792 52.092 51.0499C52.5418 51.662 52.9694 52.2065 53.3634 52.6571C53.9731 53.3593 54.5791 53.7873 55.2185 53.9638C55.3784 54.0089 55.5419 54.0314 55.7055 54.0314C56.055 54.0314 56.4044 53.93 56.7056 53.7385C57.055 53.5132 57.4268 53.2278 57.806 52.8899C58.1703 52.5669 58.516 52.2177 58.8358 51.8535C59.003 52.1727 59.2187 52.4693 59.4863 52.7359C59.9994 53.2541 60.6425 53.6822 61.4009 54.0126C62.0812 54.3093 62.8396 54.5308 63.6538 54.666C64.4196 54.7937 65.1854 54.8612 65.929 54.8612C66.9141 54.8612 67.8547 54.696 68.732 54.3693C69.1967 54.1966 69.6429 54.1102 70.0927 54.1102C70.1299 54.1102 70.1485 54.114 70.1522 54.114C70.7656 54.5083 71.5091 54.711 72.3604 54.711H72.788C73.0631 54.711 73.3493 54.696 73.643 54.6622C73.9664 54.6247 74.2676 54.5684 74.5464 54.4895C75.5204 54.2041 76.1487 53.393 76.1487 52.4243V51.9962C76.3792 52.2027 76.6208 52.398 76.8736 52.5707C77.751 53.1678 78.7585 53.4419 79.792 53.3555L82.5876 53.1302C83.0337 53.547 83.517 53.8361 84.03 53.9938C84.4947 54.1365 85.0152 54.2079 85.5766 54.2079C85.7773 54.2079 85.9855 54.2004 86.1974 54.1816C86.216 54.1816 86.2346 54.1816 86.2569 54.1741C86.8034 54.1102 87.5915 53.9563 88.1752 53.3705C88.7849 52.7547 88.9038 51.9098 88.9373 51.2452C88.9373 51.2264 88.9373 51.2077 88.9373 51.1926L89.2347 38.8838V51.7108C89.2347 52.7472 90.0674 53.5883 91.0935 53.5883H94.365C95.3279 53.5883 96.1346 52.8411 96.2164 51.8723L96.4283 49.394C96.8075 49.8896 97.2424 50.3402 97.7369 50.7308C98.5919 51.4067 99.5994 51.9324 100.73 52.2853C101.819 52.627 102.994 52.8035 104.22 52.8035C105.804 52.8035 107.254 52.5519 108.529 52.06C109.838 51.5531 110.968 50.8171 111.882 49.8784C112.793 48.9434 113.492 47.8282 113.968 46.559C114.429 45.3236 114.663 43.953 114.663 42.4773C114.663 41.4409 114.477 40.3858 114.109 39.3457C113.737 38.3018 113.198 37.348 112.503 36.5069C111.793 35.6432 110.912 34.9336 109.893 34.3928C108.823 33.8258 107.6 33.5405 106.261 33.5405C104.67 33.5405 103.161 33.8521 101.774 34.4717C100.421 35.0762 99.2128 35.8986 98.1904 36.9162C97.8893 37.2166 97.6068 37.5358 97.3391 37.8624V37.5583C97.3391 37.2654 97.2722 36.98 97.1421 36.7172C97.0714 36.5707 96.9934 36.4431 96.9079 36.3304C96.9934 36.2403 97.0789 36.1427 97.1569 36.045C97.5993 35.5006 97.9265 34.8697 98.1347 34.1675C98.3205 33.5329 98.4172 32.8533 98.4172 32.1511C98.4172 31.6179 98.3354 31.0734 98.1718 30.5214C97.9971 29.9357 97.7294 29.3987 97.3763 28.9218C97.0082 28.4262 96.551 28.0169 96.0193 27.7052C96.4134 27.6489 96.774 27.5212 97.0863 27.3297C97.354 27.5175 97.6514 27.6489 97.9822 27.724C98.1867 27.769 98.3949 27.7916 98.6105 27.7916C98.6626 27.7916 98.7109 27.7916 98.7629 27.7878C98.9563 27.7766 99.1421 27.754 99.3169 27.7127C99.3875 27.7052 99.4544 27.6864 99.5213 27.6714C99.6961 27.8667 99.8782 28.0507 100.09 28.2196C100.756 28.7491 101.596 29.0195 102.585 29.0195C103.046 29.0195 103.495 28.888 103.886 28.6364C104.183 28.4487 104.436 28.2084 104.644 27.9155C104.793 27.709 104.912 27.4912 105.009 27.2621C105.146 26.9354 105.213 26.605 105.213 26.2821V26.2671C105.429 26.2445 105.633 26.1844 105.826 26.0981C105.8 26.4022 105.774 26.6876 105.752 26.9467C105.663 27.9718 105.607 28.7453 105.581 29.3161C105.544 30.1272 105.551 30.4351 105.566 30.6228C105.663 32.0422 106.655 32.4891 106.957 32.5904C107.135 32.6505 107.321 32.6843 107.51 32.6881C107.577 32.6881 107.711 32.7031 107.919 32.7181C108.221 32.7444 108.54 32.7669 108.882 32.7932C109.209 32.8157 109.518 32.842 109.815 32.8683C110.269 32.9059 110.38 32.9134 110.488 32.9134H110.6C111.615 32.9134 112.466 32.3914 112.879 31.5128C113.061 31.1222 113.176 30.7242 113.228 30.3299C113.228 30.3112 113.232 30.2924 113.236 30.2699L113.804 24.1004C113.842 24.2281 113.879 24.352 113.916 24.4759C114.574 26.7064 115.106 28.4149 115.533 29.6991C116.05 31.2499 116.563 32.2713 117.15 32.9209C117.756 33.593 118.537 33.9385 119.392 33.9385C119.764 33.9385 120.154 33.8746 120.548 33.7395C121.158 33.6343 121.697 33.3039 122.072 32.8007C122.303 32.4928 122.474 32.1624 122.589 31.8207C122.626 31.7043 122.656 31.5841 122.671 31.4602L123.102 28.0732C123.537 28.7228 124.061 29.3011 124.682 29.7892C125.537 30.4651 126.545 30.9908 127.675 31.3438C128.764 31.6855 129.939 31.862 131.166 31.862C132.749 31.862 134.199 31.6104 135.474 31.1185C136.783 30.6116 137.913 29.8756 138.828 28.9368C139.225 28.5276 139.579 28.0845 139.895 27.6113C139.906 27.6752 139.913 27.739 139.924 27.8028C140.11 28.9218 140.486 29.9582 141.04 30.8819C141.634 31.877 142.464 32.6918 143.501 33.3001C144.412 33.8371 145.538 34.1075 146.858 34.1075C147.122 34.1075 147.393 34.0962 147.676 34.0737C148.233 34.0286 148.754 33.8709 149.237 33.6043C149.564 33.4241 149.873 33.2213 150.159 32.9997C150.285 32.9021 150.408 32.8007 150.527 32.6956C150.583 32.7331 150.642 32.7707 150.702 32.812C151.129 33.0899 151.627 33.3302 152.181 33.5254C152.851 33.762 153.62 33.8484 154.479 33.777C154.765 33.7545 154.992 33.7357 155.167 33.7207C155.564 33.6907 155.988 33.5705 156.483 33.3452C157.475 32.8796 158.289 32.1924 158.899 31.3062C159.438 30.5177 159.847 29.6165 160.115 28.6214C160.356 27.7202 160.513 26.759 160.583 25.7676C160.65 24.8214 160.665 23.8714 160.624 22.9439L160.628 22.9401ZM54.0995 10.5412C54.0995 10.5412 54.0661 10.5712 54.0512 10.5862V10.5299C54.0698 10.5299 54.0846 10.5374 54.0995 10.5412ZM74.1226 37.0288C73.3753 36.0525 72.3939 35.2377 71.2005 34.6106C69.9812 33.9723 68.5127 33.6493 66.8323 33.6493C65.3565 33.6493 64.0367 33.9685 62.9065 34.5956C62.5013 34.8209 62.1258 35.08 61.769 35.3504C61.7243 33.4541 61.2076 31.8582 60.215 30.6116C59.2558 29.41 58.0179 28.4787 56.5346 27.8441C56.884 27.7202 57.2223 27.5738 57.5346 27.3898C58.2298 26.9805 58.832 26.4736 59.319 25.8803C59.7429 25.3659 60.0737 24.8026 60.3191 24.2018C60.6462 24.2356 60.9883 24.2544 61.3377 24.2544C61.531 24.2544 61.7281 24.2506 61.9288 24.2394C62.4827 24.2093 63.0478 24.1417 63.598 24.0366C63.7021 24.0178 63.8806 23.9803 64.1296 23.9202C64.3155 23.8789 64.4531 23.8451 64.546 23.8301C64.6427 23.8113 64.7393 23.785 64.8323 23.7512C65.4903 23.5147 66.0963 23.218 66.6316 22.8688C66.9476 22.666 67.2339 22.4482 67.4941 22.2154C67.4755 22.3882 66.8323 23.7512 65.5 24.874C63.125 27.8366 63.743 28.9406 64.0218 29.5151C64.3007 30.0896 64.6984 30.5815 65.1966 30.9758C65.6501 31.3363 66.1781 31.6104 66.7654 31.7944C67.3156 31.9671 67.903 32.0535 68.5127 32.0535C69.2934 32.0535 70.0146 31.9258 70.6615 31.678C70.6949 31.663 70.7284 31.6479 70.7619 31.6329C71.0035 32.26 71.5612 32.7256 72.2526 32.8157L73.4162 32.9697C73.4943 32.981 73.5761 32.9847 73.6542 32.9847C74.1077 32.9847 74.5464 32.8157 74.8884 32.5116C75.1078 32.643 76.2323 32.97 76.5 33L78 32C79.9146 29.6015 81.0745 28.0544 81.2455 28.0244C81.4463 27.9906 81.6322 27.9268 81.8069 27.8366C81.6991 28.4149 81.647 29.0044 81.6693 29.6015C81.6954 30.2999 81.7325 31.0772 81.7846 31.9033C81.8292 32.658 81.8404 33.5292 81.8181 34.483C81.8069 34.9673 81.7623 35.493 81.6805 36.06C81.305 36.0413 80.9184 36.0563 80.5243 36.0976C79.2752 36.2027 78.1488 36.5895 77.171 37.2541C76.4498 37.7423 75.8215 38.3431 75.2936 39.0377C74.9888 38.3318 74.6022 37.6559 74.1226 37.0251V37.0288ZM26.9981 29.5189L26.9907 29.5038L26.9981 29.5151C26.9981 29.5151 26.9981 29.5001 26.9944 29.4926C26.9944 29.5001 26.9944 29.5076 26.9981 29.5151C27.0055 29.5264 27.0093 29.5376 27.0167 29.5489C27.013 29.5376 27.0055 29.5301 26.9981 29.5189ZM160.182 17.9347C160.193 17.9723 160.211 18.0211 160.226 18.0887C160.215 18.0361 160.2 17.9836 160.182 17.9347Z" fill="#707070"/>
<path d="M112.633 41.5995C112.261 40.5556 111.722 39.6018 111.027 38.7607C110.317 37.8971 109.436 37.1874 108.417 36.6466C107.346 36.0796 106.123 35.7943 104.785 35.7943C103.194 35.7943 101.684 36.1059 100.298 36.7255C98.9444 37.3301 97.7362 38.1524 96.7139 39.17C96.4127 39.4704 96.1302 39.7896 95.8625 40.1163V39.8121C95.8625 39.5192 95.7956 39.2338 95.6655 38.971C95.5949 38.8245 95.5168 38.6969 95.4313 38.5842C95.5168 38.4941 95.6023 38.3965 95.6804 38.2988C96.1228 37.7544 96.4499 37.1235 96.6581 36.4213C96.844 35.7868 96.9407 35.1071 96.9407 34.4049C96.9407 33.8717 96.8589 33.3272 96.6953 32.7753C96.5206 32.1895 96.2529 31.6525 95.8997 31.1756C95.528 30.6725 95.0633 30.2594 94.5242 29.944C93.29 29.223 91.6691 29.2681 90.13 29.8802C89.3753 30.1768 88.6801 30.5936 88.0704 31.108C88.0444 31.1306 88.0258 31.1531 87.9998 31.1719L88.0927 27.3531C88.0927 27.3531 88.0927 27.323 88.0927 27.308C88.0927 27.1203 88.0667 26.9588 88.0258 26.7222C88.0109 26.6434 87.9998 26.5608 87.9923 26.4706C87.9738 26.2491 87.9477 26.0501 87.9068 25.8473L87.8994 25.8173C87.8771 25.5131 87.7804 25.2165 87.6206 24.9574C86.9849 23.9285 86.1521 23.7783 85.7097 23.7783C85.2153 23.7783 84.7432 23.9773 84.3937 24.3265L84.3751 24.3453C83.297 25.1714 82.4828 25.9449 81.888 26.7072C81.2412 27.5371 80.7802 28.3894 80.5162 29.2418C80.256 30.0829 80.137 30.9654 80.1705 31.8628C80.1965 32.5612 80.2337 33.3385 80.2857 34.1646C80.3303 34.9194 80.3415 35.7905 80.3192 36.7443C80.308 37.2287 80.2634 37.7544 80.1816 38.3214C79.8062 38.3026 79.4195 38.3176 79.0255 38.3589C77.7763 38.4641 76.6499 38.8508 75.6722 39.5155C74.951 40.0036 74.3227 40.6044 73.7948 41.2991C73.4899 40.5931 73.1033 39.9172 72.6237 39.2864C71.8765 38.3101 70.895 37.4953 69.7017 36.8682C68.4823 36.2298 67.0138 35.9069 65.3335 35.9069C63.8576 35.9069 62.5378 36.2261 61.4077 36.8532C61.0025 37.0785 60.627 37.3376 60.2701 37.6079C60.2255 35.7117 59.7087 34.1158 58.7161 32.8691C57.757 31.6675 56.519 30.7363 55.0357 30.1017C53.6713 29.5197 52.1471 29.1329 50.5002 28.9527C48.9648 28.7837 47.4406 28.6973 45.9684 28.6973C45.0576 28.6973 44.3699 28.9977 43.9237 29.5985C43.6598 29.9553 43.4925 30.3946 43.3921 31.0179C43.3847 31.0592 43.381 31.1005 43.3773 31.1418L41.3697 51.7567C41.3623 51.8168 41.3623 51.8806 41.3623 51.9407V52.6917C41.3623 53.6342 41.6263 54.3927 42.143 54.9522C42.5817 55.4253 43.143 55.7445 43.8085 55.906C44.2918 56.0224 44.8383 56.0674 45.4331 56.0299C45.7974 56.0073 46.1803 55.9961 46.5632 55.9961C46.8681 55.9961 47.2696 55.9698 47.6971 55.7595C48.2585 55.4741 48.5447 54.9935 48.7083 54.6593C48.8198 54.4302 48.8868 54.1824 48.9016 53.9271L49.0578 51.1484C49.1321 51.2535 49.2065 51.3624 49.2845 51.4676C49.7567 52.1397 50.1879 52.748 50.608 53.3188C51.0578 53.9308 51.4854 54.4753 51.8794 54.9259C52.4891 55.6281 53.0951 56.0562 53.7345 56.2326C53.8944 56.2777 54.058 56.3002 54.2215 56.3002C54.571 56.3002 54.9204 56.1988 55.2216 56.0073C55.571 55.782 55.9428 55.4967 56.322 55.1587C56.6863 54.8358 57.0321 54.4866 57.3518 54.1223C57.5191 54.4415 57.7347 54.7382 58.0024 55.0048C58.5154 55.5229 59.1585 55.951 59.9169 56.2815C60.5972 56.5781 61.3556 56.7996 62.1698 56.9348C62.9356 57.0625 63.7015 57.1301 64.445 57.1301C65.4301 57.1301 66.3707 56.9649 67.2481 56.6382C67.7128 56.4655 68.1589 56.3791 68.6087 56.3791C68.6459 56.3791 68.6645 56.3828 68.6682 56.3828C69.2816 56.7771 70.0251 56.9799 70.8764 56.9799H71.304C71.5791 56.9799 71.8653 56.9649 72.159 56.9311C72.4825 56.8935 72.7836 56.8372 73.0624 56.7583C74.0364 56.473 74.6647 55.6619 74.6647 54.6931V54.265C74.8952 54.4716 75.1368 54.6668 75.3896 54.8395C76.267 55.4366 77.2745 55.7107 78.308 55.6243L81.1036 55.399C81.5497 55.8158 82.033 56.105 82.546 56.2627C83.0107 56.4054 83.5312 56.4767 84.0926 56.4767C84.2933 56.4767 84.5015 56.4692 84.7134 56.4504C84.732 56.4504 84.7506 56.4504 84.7729 56.4429C85.3194 56.3791 86.1075 56.2251 86.6912 55.6394C87.3009 55.0235 87.4198 54.1787 87.4533 53.514C87.4533 53.4953 87.4533 53.4765 87.4533 53.4615L87.7507 41.1526V53.9797C87.7507 55.016 88.5835 55.8571 89.6095 55.8571H92.881C93.8439 55.8571 94.6506 55.1099 94.7324 54.1411L94.9443 51.6628C95.3235 52.1585 95.7585 52.6091 96.2529 52.9996C97.1079 53.6755 98.1154 54.2012 99.2456 54.5542C100.335 54.8959 101.51 55.0723 102.736 55.0723C104.32 55.0723 105.77 54.8208 107.045 54.3289C108.354 53.8219 109.484 53.086 110.398 52.1472C111.309 51.2122 112.008 50.097 112.484 48.8278C112.945 47.5924 113.179 46.2219 113.179 44.7461C113.179 43.7098 112.993 42.6546 112.625 41.6145L112.633 41.5995Z" fill="white"/>
<path d="M18.6255 27.819C18.5994 27.7889 18.5437 27.7514 18.4544 27.7138C18.3652 27.6763 18.3132 27.6688 18.2983 27.6875L17.7295 32.2912C17.2834 32.4489 16.815 32.5728 16.3243 32.6666C15.8298 32.7605 15.3874 32.8619 14.9896 32.9746C14.8855 32.9933 14.7852 32.9633 14.6997 32.8769C14.6104 32.7943 14.5324 32.6967 14.4692 32.5915C14.4022 32.4827 14.3539 32.3775 14.3167 32.2761C14.2796 32.171 14.2498 32.1072 14.2238 32.0734C13.3093 30.0945 12.5248 28.4085 11.8668 27.0154C11.2088 25.6223 10.6512 24.4545 10.1939 23.512C9.73664 22.5695 9.36859 21.8147 9.09349 21.2515C8.81467 20.6883 8.59161 20.2489 8.42432 19.9297C8.25703 19.6106 8.13063 19.3778 8.04884 19.2276C7.96705 19.0774 7.90385 18.9347 7.85924 18.7957C7.79232 18.6268 7.78861 18.5141 7.85181 18.4653C7.91501 18.4165 8.03397 18.3564 8.20126 18.2888C8.57674 18.1611 8.96337 18.0635 9.36116 17.9884C9.75523 17.9133 10.1456 17.8232 10.5248 17.7143L10.6772 17.7969C10.8817 18.2175 11.1233 18.7019 11.3947 19.2463C11.6698 19.7908 11.9635 20.3653 12.2758 20.9699C12.588 21.5744 12.9003 22.1865 13.2163 22.8061C13.5323 23.4256 13.8372 24.0152 14.1309 24.5634C14.4245 25.1154 14.6997 25.6148 14.9562 26.0616C15.2127 26.5085 15.4283 26.8652 15.603 27.1243L16.3391 23.2867C16.4915 23.2229 16.6923 23.1478 16.9377 23.0614C17.1867 22.9788 17.4433 22.915 17.7072 22.8737C17.9712 22.8323 18.2202 22.8286 18.4544 22.8549C18.6887 22.8849 18.8634 22.9788 18.9861 23.1403L21.1423 26.3733L21.2464 26.3545L20.4211 14.9769L20.5772 14.6427C20.5921 14.6202 20.6069 14.6089 20.6255 14.6052C20.6441 14.6052 20.6664 14.5864 20.6999 14.5639C20.8226 14.5413 20.8932 14.5188 20.9044 14.4963C21.0233 14.455 21.2389 14.3911 21.5512 14.3048C21.8635 14.2184 22.1869 14.1471 22.5215 14.0945C22.8561 14.0419 23.1647 14.0194 23.4398 14.0307C23.7149 14.0419 23.8747 14.117 23.9193 14.256C23.9193 14.2747 23.9342 14.3123 23.9565 14.3724C23.9751 14.4324 23.9788 14.4738 23.9639 14.4963L24.7893 30.0119L24.6554 30.3123L21.581 31.4162L18.618 27.8115L18.6255 27.819Z" fill="white"/>
<path d="M34.0422 28.6293C33.9009 28.2538 33.8042 27.8596 33.7559 27.454C33.7076 27.0485 33.663 26.6392 33.6221 26.2224C33.5812 25.8056 33.5366 25.3963 33.4882 24.9908C33.4399 24.5852 33.3433 24.1872 33.1983 23.7892C33.1128 23.5301 33.0161 23.2973 32.9046 23.087C32.793 22.8767 32.6555 22.7077 32.4956 22.5726C32.3321 22.4374 32.1462 22.3548 31.9306 22.321C31.7149 22.2872 31.451 22.321 31.1424 22.4148C30.6443 22.5838 30.3506 22.8579 30.2576 23.2447C30.1647 23.6315 30.1647 24.067 30.2576 24.5552C30.3469 25.0433 30.4918 25.569 30.6852 26.1285C30.8785 26.688 31.0235 27.2137 31.1127 27.7019C31.2019 28.19 31.1982 28.6293 31.0978 29.0161C30.9974 29.4029 30.6963 29.6807 30.1981 29.8497C29.9751 29.9286 29.752 29.9924 29.5253 30.045C29.2985 30.0975 29.0606 30.045 28.8152 29.891C28.804 29.8384 28.7817 29.7558 28.7408 29.6432C28.6999 29.5305 28.6665 29.4517 28.6405 29.3991C28.2984 28.1412 27.9341 26.7857 27.5438 25.3287C27.1571 23.8755 26.7779 22.4449 26.4062 21.033C26.0344 19.6211 25.6887 18.2844 25.3615 17.0227C25.0344 15.761 24.7556 14.6833 24.5176 13.7897C24.2797 12.896 24.105 12.2351 24.0009 11.8033C23.8931 11.3714 23.8745 11.2888 23.9414 11.5517C23.8968 11.4128 23.9302 11.2738 24.0418 11.1311C24.1533 10.9922 24.276 10.8908 24.4098 10.827C24.5808 10.7744 24.8448 10.8382 25.1942 11.011C25.5437 11.1837 25.908 11.3902 26.2798 11.6343C26.6515 11.8784 26.9861 12.1224 27.2761 12.3703C27.5698 12.6181 27.7408 12.7833 27.7929 12.8659C27.7929 12.8847 27.804 12.9035 27.8189 12.9298C27.8337 12.956 27.8412 12.9748 27.8449 12.9936C27.8523 13.324 27.8784 13.8197 27.9304 14.4806C27.9787 15.1414 28.0456 15.8474 28.1312 16.5946C28.2167 17.3419 28.317 18.0553 28.4323 18.7312C28.5475 19.4071 28.6776 19.9253 28.8152 20.2858C28.8487 20.3721 28.9081 20.4059 28.9974 20.3909C29.0866 20.3759 29.1646 20.3609 29.2353 20.3459C29.2687 20.3383 29.3059 20.3271 29.3394 20.3121C29.3728 20.297 29.3989 20.2858 29.4174 20.282C29.726 19.8765 30.0197 19.501 30.3022 19.163C30.5848 18.8251 30.9751 18.5697 31.4733 18.4045C31.9194 18.2656 32.3321 18.2844 32.7113 18.4609C33.0905 18.6373 33.425 18.8964 33.715 19.2381C34.005 19.5798 34.2503 19.9516 34.4548 20.3534C34.6556 20.7551 34.8154 21.1119 34.927 21.4235C35.3545 22.5575 35.637 23.7291 35.7709 24.9457C35.9047 26.1623 36.0422 27.3527 36.1872 28.5242C36.1761 28.6556 36.1092 28.7382 35.9865 28.7683C35.8638 28.7983 35.7894 28.8284 35.756 28.8546C35.6221 28.9185 35.466 28.9673 35.2913 29.0124C35.1166 29.0537 34.9493 29.0724 34.782 29.0687C34.6184 29.0612 34.466 29.0274 34.3247 28.9635C34.1834 28.8997 34.0905 28.7871 34.0459 28.6293H34.0422Z" fill="white"/>
<path d="M37.3705 26.9808C37.2441 26.3049 37.3779 25.7154 37.7646 25.2085C38.1512 24.7015 38.6828 24.2622 39.3483 23.8867C40.0174 23.5112 40.7647 23.1996 41.5937 22.9517C42.4227 22.7039 43.2183 22.4899 43.9879 22.3059L44.1477 22.1369C44.1626 22.1181 44.1477 22.0092 44.1143 21.814C44.0771 21.6187 44.0511 21.4685 44.0288 21.3596C43.9618 21.0029 43.8801 20.6161 43.7834 20.1918C43.6867 19.7675 43.5232 19.3845 43.2964 19.0428C43.0696 18.7011 42.7499 18.4382 42.3447 18.258C41.9395 18.0778 41.4004 18.0515 40.7312 18.1754C40.5193 18.2167 40.3 18.2768 40.0695 18.3556C39.839 18.4345 39.6234 18.5321 39.4264 18.6448C39.2293 18.7574 39.0695 18.8926 38.9542 19.0503C38.839 19.2118 38.7981 19.3807 38.8315 19.5572L39.3223 22.197C39.3334 22.2495 39.2516 22.3096 39.0843 22.381C38.9133 22.4486 38.7126 22.5124 38.4746 22.565C38.2404 22.6175 38.0099 22.6663 37.7906 22.7077C37.5713 22.749 37.4263 22.7752 37.3556 22.7903C37.1437 22.8316 36.9727 22.809 36.8389 22.7227C36.7051 22.6363 36.5935 22.5274 36.5043 22.3847C36.4151 22.2458 36.3482 22.1031 36.2998 21.9529C36.2552 21.8065 36.2218 21.6788 36.2032 21.5699C36.114 21.0893 36.1102 20.5485 36.1883 19.944C36.2664 19.3394 36.4597 18.7537 36.7608 18.1791C37.0657 17.6084 37.4895 17.094 38.0322 16.6434C38.575 16.1928 39.2628 15.8848 40.0881 15.7309C41.0733 15.5431 41.9357 15.5657 42.6793 15.791C43.4228 16.02 44.0511 16.3655 44.5641 16.8273C45.0771 17.293 45.4861 17.8262 45.7909 18.4307C46.0958 19.0353 46.3002 19.6211 46.4043 20.1918L47.6125 26.7217C47.6274 26.8118 47.5791 26.8832 47.4638 26.9433C47.3486 27.0033 47.211 27.0559 47.0549 27.1047C46.8988 27.1535 46.7463 27.1911 46.5976 27.2174C46.4489 27.2474 46.3485 27.2662 46.2928 27.2737C45.9396 27.3413 45.6422 27.3225 45.3968 27.2211C45.1515 27.1198 44.8875 27.0972 44.605 27.1498C44.1291 27.2399 43.6719 27.4164 43.2295 27.6868C42.7871 27.9534 42.2926 28.1411 41.7499 28.2425C41.2926 28.3289 40.8205 28.3777 40.3297 28.3852C39.839 28.3965 39.3855 28.3514 38.9691 28.2575C38.549 28.1599 38.1958 28.0134 37.9021 27.8107C37.6084 27.6079 37.43 27.33 37.3631 26.9733L37.3705 26.9808ZM40.1996 26.0308C40.2331 26.2073 40.3 26.335 40.4041 26.4063C40.5082 26.4777 40.6383 26.5227 40.7981 26.5377C40.9543 26.5528 41.129 26.549 41.3149 26.5227C41.5008 26.4964 41.6904 26.4664 41.8837 26.4288C42.4302 26.3275 42.8726 26.181 43.2109 25.997C43.5492 25.813 43.683 25.5276 43.6124 25.1334C43.5789 24.9569 43.5306 24.8217 43.4711 24.7316C43.4079 24.6415 43.2295 24.5889 42.9358 24.5701L42.196 24.7091C41.9841 24.7504 41.7536 24.8029 41.5008 24.8668C41.248 24.9344 41.0175 25.0132 40.8093 25.1071C40.5974 25.201 40.4338 25.3249 40.3186 25.4751C40.1996 25.6253 40.1624 25.8093 40.1996 26.0195V26.0308Z" fill="white"/>
<path d="M48.481 17.6535C48.2171 17.4995 47.9791 17.4094 47.7747 17.3719C47.5665 17.3381 47.3806 17.3268 47.2096 17.3418C47.0386 17.3568 46.8936 17.3568 46.7709 17.3418C46.6482 17.3268 46.5479 17.2517 46.4698 17.109C46.388 16.9663 46.3285 16.7373 46.2876 16.4143C46.2467 16.0914 46.2244 15.6258 46.2207 15.0212C46.2207 14.7434 46.3285 14.5331 46.5404 14.3829C46.7486 14.2327 46.9977 14.1275 47.2877 14.0637C47.5776 13.9999 47.8788 13.9623 48.1948 13.9473C48.5108 13.9323 48.7784 13.9248 48.994 13.921L49.1651 13.8046L49.1502 8.26226C49.1725 7.98064 49.2431 7.69902 49.3621 7.40988C49.4811 7.12075 49.7562 6.95553 50.1837 6.91047C50.377 6.87292 50.6001 6.90671 50.8566 7.00434C51.1131 7.10197 51.3547 7.23715 51.5852 7.40237C51.8157 7.57135 52.0165 7.7591 52.18 7.96562C52.3473 8.17214 52.4366 8.3674 52.4514 8.54764L51.9793 13.5192C52.0053 13.6619 52.1131 13.7483 52.299 13.7746C52.4849 13.8046 52.6856 13.8196 52.8975 13.8271C53.1094 13.8347 53.299 13.8422 53.4775 13.8572C53.6522 13.8685 53.7414 13.921 53.7377 14.0149L53.8716 17.2442C53.8716 17.2442 53.8567 17.2892 53.8195 17.323C53.7823 17.3568 53.7526 17.3869 53.7377 17.4056C53.5704 17.492 53.3808 17.5671 53.1652 17.6234C52.9496 17.6835 52.7302 17.7286 52.5072 17.7624C52.2841 17.7962 52.0759 17.8262 51.8826 17.8525C51.6856 17.8788 51.5369 17.9051 51.4328 17.9238L51.2432 18.0703C51.2358 18.2205 51.2358 18.3481 51.2432 18.457C51.2544 18.5659 51.2581 18.6711 51.2618 18.7725C51.2618 18.8738 51.2544 18.9339 51.2395 18.9565C51.2469 19.193 51.2544 19.5084 51.2655 19.9027C51.2729 20.297 51.3064 20.7138 51.3584 21.1531C51.4142 21.5925 51.496 22.0393 51.6038 22.4861C51.7153 22.933 51.8789 23.331 52.0983 23.6765C52.3176 24.0219 52.5964 24.296 52.9347 24.4988C53.273 24.7016 53.7005 24.7729 54.2173 24.7128C54.3623 24.7053 54.5296 24.6528 54.7229 24.5626C54.9162 24.4725 55.0984 24.296 55.2657 24.0332C55.4367 23.7703 55.5742 23.3986 55.6857 22.918C55.7973 22.4373 55.8456 21.814 55.8307 21.0442L55.9869 20.849L57.8866 20.4885L57.9721 20.4998C58.2435 20.4847 58.4479 20.5636 58.5892 20.7288C58.7305 20.894 58.8234 21.093 58.8755 21.3221C58.9275 21.5511 58.9535 21.7877 58.9498 22.0243C58.9498 22.2646 58.9498 22.4486 58.9573 22.5763C58.9573 23.0569 58.8643 23.545 58.6822 24.0482C58.5037 24.5514 58.236 25.017 57.8903 25.4413C57.5408 25.8656 57.1133 26.2261 56.604 26.5265C56.0947 26.8231 55.511 27.0109 54.8493 27.0785C53.8121 27.1836 52.931 27.1048 52.2098 26.8457C51.4886 26.5866 50.8937 26.2036 50.4253 25.6929C49.9569 25.1822 49.5926 24.5889 49.3323 23.913C49.0684 23.2371 48.8751 22.5312 48.7487 21.8027C48.6223 21.0743 48.5479 20.3458 48.5219 19.6248C48.4959 18.9039 48.4847 18.2468 48.4847 17.6572L48.481 17.6535Z" fill="white"/>
<path d="M54.7315 13.3545C54.7315 13.3545 54.7389 13.3019 54.7649 13.2531C54.7909 13.2005 54.8058 13.1667 54.8021 13.1517C54.9954 13.0053 55.2371 12.795 55.5307 12.5171C55.8244 12.2393 56.107 11.9389 56.3746 11.6122C56.6423 11.2855 56.8654 10.9588 57.0401 10.6321C57.2148 10.3055 57.2817 10.0163 57.2334 9.76849L57.2223 9.71592V9.68963C57.1962 9.67461 57.1479 9.65208 57.0698 9.62204C56.9918 9.592 56.9323 9.56196 56.8877 9.53193C56.7278 9.54319 56.475 9.55821 56.133 9.57698C55.791 9.59576 55.4378 9.58825 55.0772 9.55445C54.7166 9.52066 54.3932 9.45307 54.1106 9.35169C53.8281 9.2503 53.6608 9.07382 53.6162 8.82599C53.5567 8.50681 53.6162 8.17262 53.7872 7.82716C53.9582 7.4817 54.1998 7.16629 54.5121 6.87715C54.8207 6.58802 55.1776 6.33643 55.5754 6.12616C55.9731 5.91588 56.3635 5.76943 56.7538 5.69809C57.1591 5.62299 57.5011 5.63425 57.7836 5.73564C58.0662 5.83702 58.3004 5.99098 58.4825 6.1975C58.6647 6.40027 58.8097 6.63683 58.9138 6.90344C59.0179 7.17004 59.0922 7.41787 59.1331 7.64692C59.2037 8.01867 59.174 8.52183 59.0439 9.15267C58.9138 9.78351 58.6982 10.4143 58.397 11.0414C58.0922 11.6685 57.7167 12.2318 57.2632 12.7312C56.8096 13.2306 56.3003 13.5347 55.7389 13.6399C55.5642 13.6737 55.3597 13.6737 55.1255 13.6474C54.8913 13.6173 54.7612 13.5235 54.7315 13.362V13.3545Z" fill="white"/>
<path d="M57.9552 21.4616C57.9366 21.3565 57.9961 21.2176 58.1411 21.0561C58.2824 20.8909 58.4534 20.7294 58.6541 20.5717C58.8512 20.414 59.0631 20.2751 59.2861 20.1474C59.5092 20.0235 59.6988 19.9446 59.8586 19.9146C60.1412 19.862 60.3605 19.9146 60.5167 20.0798C60.6728 20.245 60.8364 20.429 61.0037 20.6355C61.171 20.8421 61.3606 21.0223 61.5799 21.1763C61.7992 21.3265 62.1189 21.364 62.5428 21.2852C62.7361 21.2476 62.9443 21.1913 63.1673 21.1124C63.3904 21.0336 63.58 20.9322 63.7398 20.812C63.7584 20.812 63.7919 20.7782 63.8476 20.7219C63.8997 20.6656 63.9629 20.598 64.0298 20.5229C64.0967 20.444 64.1599 20.3727 64.2231 20.3089C64.2826 20.2413 64.3384 20.1962 64.3867 20.1662L64.3755 20.1136C64.3755 20.1136 64.3755 20.0873 64.383 20.0836C64.3904 20.0836 64.3941 20.0723 64.3904 20.0535C64.4313 19.9709 64.4462 19.9146 64.4387 19.877L64.29 19.0772C64.0298 18.9608 63.803 18.8632 63.606 18.7806C63.409 18.698 63.2045 18.6116 63 18.5215C62.7918 18.4314 62.6171 18.3563 62.4796 18.2887C62.4015 18.2662 62.3048 18.2361 62.1896 18.1911C62.0743 18.1497 61.9554 18.1084 61.8401 18.0634C61.7249 18.0221 61.6171 17.9845 61.5204 17.9582C61.4238 17.932 61.368 17.9169 61.3494 17.9207C61.3271 17.9057 61.2676 17.8907 61.1635 17.8719C61.0594 17.8569 60.9479 17.8343 60.8252 17.8118C60.7025 17.7893 60.591 17.7705 60.4869 17.7517C60.3828 17.7329 60.3233 17.7292 60.3048 17.7292C59.9441 17.6503 59.5984 17.5302 59.2675 17.3725C58.9367 17.2148 58.6393 17.027 58.3716 16.8092C58.1039 16.5914 57.8846 16.3624 57.7099 16.1183C57.5388 15.8742 57.4273 15.6302 57.3827 15.3786C57.3641 15.2734 57.3678 15.142 57.3939 14.9918C57.4199 14.8416 57.4422 14.7177 57.4608 14.6201C57.7173 13.8353 58.2006 13.1594 58.9144 12.5924C59.6281 12.0254 60.6542 11.6161 61.9926 11.3645C62.6245 11.2443 63.2751 11.1993 63.9331 11.2331C64.5949 11.2631 65.1637 11.3833 65.6395 11.586L66.3199 11.8714L66.3496 11.8939C66.4128 11.939 66.4351 11.9615 66.4165 11.9653V11.9916C66.4351 12.0629 66.3905 12.1643 66.2864 12.292C66.1823 12.4234 66.1191 12.5248 66.0968 12.6036C66.0336 12.6525 65.9369 12.7801 65.8143 12.9866C65.6879 13.1932 65.6321 13.3359 65.647 13.4034C65.5503 13.4748 65.4425 13.5236 65.3198 13.5499C65.0745 13.595 64.8477 13.5874 64.6469 13.5274C64.4462 13.4635 64.2343 13.4372 64.0149 13.441C63.7027 13.426 63.3829 13.426 63.0595 13.441C62.7361 13.456 62.4052 13.4973 62.0706 13.5574C61.5762 13.6513 61.2081 13.809 60.9553 14.0305C60.7063 14.2521 60.6059 14.5074 60.6579 14.789C60.7063 15.0556 60.9107 15.2697 61.2676 15.4311C61.6245 15.5926 62.0372 15.7278 62.5019 15.8329C62.9666 15.9381 63.4424 16.0432 63.9257 16.1446C64.409 16.246 64.7994 16.3699 65.1005 16.5163C65.2789 16.5914 65.4313 16.6553 65.5577 16.7041C65.6841 16.7529 65.7882 16.843 65.8663 16.9782L65.8812 17.057C66.2938 17.3086 66.621 17.6203 66.8738 17.9883C67.1229 18.3563 67.2827 18.7243 67.3534 19.096C67.4166 19.434 67.3868 19.7794 67.2716 20.1324C67.1563 20.4853 66.9593 20.8233 66.6805 21.1425C66.4016 21.4616 66.0522 21.7583 65.6284 22.0324C65.2046 22.3065 64.7287 22.5393 64.2008 22.7308C64.0967 22.7496 63.9331 22.7872 63.7138 22.836C63.4945 22.8885 63.342 22.9186 63.2528 22.9373C62.777 23.0275 62.3011 23.0838 61.8253 23.1101C61.3457 23.1364 60.8959 23.1251 60.4683 23.0763C60.0408 23.0275 59.6542 22.9374 59.3121 22.7984C58.9664 22.6595 58.6802 22.468 58.4534 22.2164C58.3381 22.0925 58.234 21.9686 58.1411 21.8484C58.0444 21.7282 57.985 21.5968 57.9589 21.4541L57.9552 21.4616Z" fill="white"/>
<path d="M48.8362 45.5922C48.7619 45.5922 48.6875 45.6786 48.6131 45.8551C48.5871 45.9039 48.576 45.9414 48.576 45.9677C48.576 45.994 48.5648 46.0165 48.5388 46.0428L48.167 52.6891C48.0927 52.8393 48.0295 52.9257 47.9812 52.952C47.9328 52.9783 47.8324 52.9895 47.6837 52.9895C47.2637 52.9895 46.8473 53.0008 46.4383 53.0271C46.0294 53.0534 45.6688 53.0271 45.3602 52.952C45.0517 52.8769 44.8026 52.738 44.6167 52.5389C44.4308 52.3399 44.3379 52.0132 44.3379 51.5627V50.8117L46.3454 30.1968C46.3937 29.8964 46.4569 29.6974 46.5313 29.596C46.6056 29.4946 46.7915 29.4458 47.0889 29.4458C48.5016 29.4458 49.9441 29.5284 51.4199 29.6899C52.8958 29.8513 54.2342 30.1893 55.435 30.7037C56.6358 31.2182 57.6209 31.9541 58.3905 32.9192C59.16 33.8842 59.5429 35.1534 59.5429 36.7305C59.5429 37.857 59.4017 38.807 59.1154 39.5843C58.8291 40.3615 58.4648 41.0036 58.0187 41.5181C57.5726 42.0325 57.0967 42.438 56.5874 42.7384C56.0781 43.0388 55.6023 43.2716 55.1561 43.4331C54.71 43.5946 54.3308 43.7222 54.0223 43.8086C53.7137 43.895 53.5464 43.9776 53.5204 44.0527V44.2029C53.5204 44.8037 53.7546 45.3294 54.2267 45.78C54.6989 46.2306 55.2119 46.6699 55.7696 47.0942C56.3272 47.5185 56.8402 47.9466 57.3124 48.3709C57.7845 48.7952 58.0187 49.2834 58.0187 49.8354C58.0187 50.1358 57.9332 50.4474 57.7585 50.7741C57.5838 51.1008 57.3607 51.42 57.0893 51.7316C56.8179 52.0433 56.5242 52.3399 56.2157 52.614C55.9071 52.8882 55.6134 53.1135 55.342 53.2899C55.0706 53.2148 54.7546 52.9708 54.394 52.5577C54.0334 52.1447 53.6431 51.649 53.223 51.0745C52.8029 50.5 52.3679 49.8917 51.9218 49.2533C51.4757 48.615 51.0556 48.0255 50.6578 47.4885C50.26 46.9515 49.9032 46.5009 49.5797 46.1367C49.2563 45.7725 49.0109 45.5922 48.8362 45.5922V45.5922ZM48.9849 40.0349C48.9849 40.2602 49.089 40.4366 49.3009 40.5605C49.5128 40.6845 49.7582 40.7671 50.0444 40.8046C50.3307 40.8422 50.6132 40.8609 50.8995 40.8609H51.5501C52.2192 40.8609 52.8066 40.7408 53.3159 40.5042C53.8252 40.2677 54.2379 39.9522 54.5613 39.5655C54.8848 39.1787 55.1264 38.7206 55.2863 38.1949C55.4461 37.6692 55.5279 37.1172 55.5279 36.5427V35.4538C55.3532 35.052 55.0818 34.6953 54.71 34.3836C54.3383 34.0719 53.9219 33.8091 53.4646 33.5951C53.0074 33.381 52.5278 33.2271 52.0334 33.1257C51.5389 33.0243 51.0779 32.9755 50.6578 32.9755C50.4831 32.9755 50.2972 32.9867 50.1002 33.013C49.9032 33.0393 49.7545 33.1144 49.6541 33.2383L48.9849 40.0349V40.0349Z" fill="black"/>
<path d="M59.9145 51.2617C59.9145 50.3117 60.2416 49.5419 60.8996 48.9524C61.5576 48.3628 62.3867 47.901 63.3904 47.563C64.3942 47.2251 65.4909 46.9923 66.6805 46.8683C67.8702 46.7444 69.0115 46.6543 70.1007 46.6055L70.361 46.4177C70.387 46.3915 70.3981 46.2413 70.3981 45.9671V45.3288C70.3981 44.8294 70.387 44.2774 70.361 43.6766C70.3349 43.0758 70.2123 42.5126 69.9892 41.9869C69.7661 41.4612 69.4018 41.0218 68.8925 40.6726C68.3832 40.3234 67.6583 40.1469 66.7177 40.1469C66.4203 40.1469 66.1043 40.1732 65.7697 40.222C65.4351 40.2708 65.1191 40.3459 64.8217 40.4473C64.5243 40.5487 64.2752 40.6914 64.0782 40.8791C63.8812 41.0669 63.7808 41.2847 63.7808 41.5363V45.2537C63.7808 45.3288 63.6581 45.3926 63.409 45.4414C63.1599 45.4903 62.87 45.5241 62.5354 45.5353C62.2008 45.5466 61.8774 45.5541 61.5688 45.5541H60.9554C60.658 45.5541 60.4275 45.479 60.2676 45.3288C60.1078 45.1786 59.9814 44.9984 59.8959 44.7843C59.8104 44.5703 59.7546 44.36 59.7286 44.146C59.7026 43.9319 59.6914 43.7517 59.6914 43.6015C59.6914 42.9256 59.8215 42.1859 60.0818 41.3861C60.342 40.5863 60.7509 39.8353 61.3086 39.1331C61.8662 38.4309 62.5726 37.8451 63.4276 37.3682C64.2827 36.8913 65.2939 36.6548 66.4575 36.6548C67.8441 36.6548 69.0152 36.9064 69.9706 37.4058C70.926 37.9052 71.6919 38.5398 72.2755 39.302C72.8592 40.0643 73.2793 40.8979 73.5395 41.7991C73.7998 42.7003 73.9299 43.5527 73.9299 44.3525V53.5522C73.9299 53.6761 73.8444 53.7662 73.6696 53.8151C73.4949 53.8639 73.2979 53.9014 73.0748 53.9277C72.8518 53.954 72.6361 53.9653 72.4242 53.9653H71.9967C71.5023 53.9653 71.0971 53.8639 70.7885 53.6649C70.4799 53.4658 70.1268 53.3645 69.729 53.3645C69.0598 53.3645 68.3906 53.4884 67.7215 53.74C67.0523 53.9915 66.3348 54.1155 65.5652 54.1155C64.9221 54.1155 64.2641 54.0591 63.5949 53.9465C62.9257 53.8338 62.3198 53.6573 61.7733 53.4208C61.2268 53.1842 60.7807 52.8876 60.4349 52.5384C60.0892 52.1891 59.9145 51.7611 59.9145 51.2617V51.2617ZM64.0038 50.6984C64.0038 50.95 64.067 51.1378 64.1897 51.2617C64.3124 51.3856 64.4797 51.4795 64.6916 51.5433C64.9035 51.6071 65.1377 51.6447 65.3979 51.6559C65.6582 51.6672 65.9258 51.6747 66.1972 51.6747C66.9668 51.6747 67.6025 51.5921 68.1118 51.4306C68.6211 51.2692 68.8739 50.9125 68.8739 50.3605C68.8739 50.1089 68.8442 49.9174 68.781 49.7785C68.7178 49.6395 68.491 49.5231 68.0932 49.4217H67.0523C66.7549 49.4217 66.4277 49.433 66.0671 49.4593C65.7065 49.4856 65.3719 49.5344 65.0634 49.6095C64.7548 49.6846 64.4983 49.8085 64.3013 49.985C64.1042 50.1615 64.0038 50.398 64.0038 50.6984V50.6984Z" fill="black"/>
<path d="M79.284 52.6136C78.6632 52.6625 78.0869 52.5085 77.5553 52.1443C77.0237 51.78 76.559 51.3257 76.1612 50.7737C75.7634 50.2217 75.4437 49.6209 75.1946 48.9713C74.9455 48.3217 74.8117 47.7209 74.7857 47.1689C74.7113 46.1926 74.7857 45.2426 75.0087 44.3151C75.2318 43.3876 75.5775 42.5503 76.0497 41.7993C76.5218 41.0483 77.1166 40.4287 77.8341 39.9406C78.5516 39.4524 79.3844 39.1708 80.3249 39.0957C80.7711 39.0469 81.1911 39.0469 81.5889 39.0957C81.9867 39.1445 82.4068 39.1445 82.8529 39.0957C83.1243 37.819 83.273 36.6737 83.299 35.6599C83.3251 34.646 83.3102 33.7336 83.2619 32.9188C83.2135 32.1039 83.1764 31.3529 83.1503 30.6658C83.1243 29.9786 83.2135 29.314 83.4106 28.6756C83.6076 28.0373 83.9608 27.3914 84.4701 26.7418C84.9794 26.0922 85.7266 25.39 86.7192 24.639L86.7564 24.6015L86.8308 24.5264C86.9311 24.5264 87.0427 24.6278 87.1654 24.8268C87.1654 24.8756 87.1765 24.9657 87.2025 25.0896C87.2286 25.2135 87.2471 25.3525 87.2583 25.5027C87.2694 25.6529 87.288 25.7956 87.3141 25.9345C87.3401 26.0734 87.3512 26.1523 87.3512 26.1786L86.7192 52.2757C86.6932 52.7526 86.6189 53.053 86.4962 53.1769C86.3735 53.3008 86.0984 53.3909 85.6783 53.4397C85.1095 53.4886 84.6188 53.451 84.2098 53.3271C83.8009 53.2032 83.3994 52.8652 83.0016 52.3132L79.284 52.6136V52.6136ZM78.6892 46.0049C78.7896 46.9323 79.1056 47.6308 79.6372 48.1077C80.1688 48.5845 80.8826 48.7836 81.7748 48.7085C81.8492 48.6822 81.9718 48.6521 82.1466 48.6146C82.3213 48.577 82.418 48.547 82.444 48.5207L82.8529 48.0326C82.8529 47.9312 82.8827 47.6496 82.9459 47.1877C83.0091 46.7258 83.05 46.2227 83.076 45.6857C83.102 45.1487 83.076 44.6418 83.0016 44.1649C82.9273 43.688 82.7414 43.3876 82.444 43.2637L79.6558 43.489C79.3844 43.5153 79.1799 43.628 79.0424 43.827C78.9048 44.026 78.8119 44.2588 78.7635 44.5217C78.7152 44.7845 78.6892 45.0549 78.6892 45.329V46.0049V46.0049Z" fill="black"/>
<path d="M88.8008 34.4399C88.8008 33.8653 88.9495 33.3134 89.2469 32.7877C89.5443 32.262 89.9235 31.8039 90.3808 31.4171C90.838 31.0303 91.3548 30.7224 91.9236 30.4971C92.4924 30.2718 93.05 30.1592 93.5965 30.1592C94.0166 30.1592 94.3884 30.2531 94.7118 30.4408C95.0352 30.6286 95.3066 30.8726 95.5297 31.173C95.7527 31.4734 95.92 31.8114 96.0315 32.1869C96.1431 32.5624 96.1988 32.9266 96.1988 33.2758C96.1988 33.8015 96.1319 34.2972 95.9944 34.759C95.8568 35.2209 95.6486 35.6302 95.3624 35.9794C95.0761 36.3286 94.7229 36.6102 94.3029 36.8243C93.8828 37.0383 93.3846 37.1434 92.8158 37.1434C92.5184 37.1434 92.1392 37.0683 91.6819 36.9181C91.2247 36.7679 90.7823 36.5689 90.3622 36.3173C89.9421 36.0658 89.574 35.7804 89.2655 35.4537C88.9569 35.127 88.8008 34.7891 88.8008 34.4399V34.4399ZM90.7339 39.7719L94.2657 38.4201H94.5631C94.6858 38.4201 94.7936 38.4276 94.8791 38.4389C94.9646 38.4502 95.0464 38.5328 95.1207 38.683V39.7719L94.0054 52.8393H90.7339V39.7719V39.7719Z" fill="black"/>
<path d="M96.3477 45.7046C96.3477 44.5519 96.5967 43.4254 97.0912 42.3252C97.5856 41.2249 98.2697 40.2411 99.1359 39.3775C100.002 38.5138 101.013 37.8267 102.166 37.3123C103.318 36.7978 104.564 36.5425 105.902 36.5425C106.943 36.5425 107.865 36.7565 108.672 37.1808C109.478 37.6051 110.159 38.1571 110.716 38.833C111.274 39.5089 111.701 40.2674 111.999 41.1048C112.296 41.9421 112.445 42.7757 112.445 43.6018C112.445 44.8523 112.252 45.9938 111.869 47.0189C111.486 48.044 110.928 48.9339 110.196 49.6849C109.463 50.4359 108.567 51.0179 107.501 51.431C106.434 51.844 105.222 52.0506 103.857 52.0506C102.816 52.0506 101.839 51.9079 100.92 51.6187C100.002 51.3296 99.2028 50.9166 98.5225 50.3796C97.8421 49.8426 97.3068 49.178 96.9239 48.3895C96.541 47.6009 96.3477 46.7072 96.3477 45.7046V45.7046ZM101.627 44.9912C101.675 45.7685 101.969 46.4068 102.5 46.9062C103.032 47.4056 103.735 47.6572 104.601 47.6572C105.716 47.6572 106.619 47.3643 107.315 46.7748C108.01 46.1853 108.382 45.393 108.43 44.3904C108.456 43.3653 108.3 42.5392 107.965 41.9121C107.631 41.285 107.203 40.8419 106.683 40.5791C106.162 40.3162 105.593 40.2224 104.973 40.2975C104.352 40.3726 103.79 40.6054 103.281 40.9921C102.772 41.3789 102.359 41.9121 102.036 42.588C101.712 43.2639 101.578 44.0637 101.627 44.9912V44.9912Z" fill="black"/>
<path d="M65 28.7249C65 28.2556 65.1004 27.7975 65.3011 27.3506C65.5019 26.9038 65.7807 26.502 66.1339 26.1528C66.487 25.7998 66.896 25.5219 67.3644 25.3117C67.8328 25.1014 68.3384 25 68.8849 25C69.3087 25 69.6842 25.0864 70.0113 25.2591C70.3385 25.4318 70.6173 25.6571 70.8441 25.9312C71.0709 26.2053 71.2456 26.5133 71.3646 26.855C71.4835 27.1967 71.5467 27.5346 71.5467 27.8688C71.5467 28.3795 71.4686 28.8413 71.3125 29.2582C71.1564 29.675 70.9296 30.0354 70.6322 30.3433C70.3348 30.6512 69.9705 30.8841 69.5355 31.053C69.1005 31.222 68.6098 31.3046 68.0522 31.3046C67.6284 31.3046 67.2306 31.2445 66.8588 31.1281C66.487 31.0117 66.1599 30.8428 65.8848 30.625C65.606 30.4072 65.3904 30.1368 65.2342 29.8139C65.0781 29.4947 65 29.1305 65 28.7212V28.7249ZM67.1451 28.4358C67.1637 28.7512 67.2826 29.0103 67.502 29.2131C67.7176 29.4159 68.0038 29.5172 68.357 29.5172C68.8106 29.5172 69.1786 29.3971 69.4611 29.1568C69.7437 28.9164 69.8961 28.5935 69.9147 28.188C69.9258 27.7712 69.8626 27.4332 69.7251 27.1816C69.5875 26.9263 69.4165 26.7461 69.2046 26.6409C68.9927 26.5358 68.7622 26.4945 68.5094 26.5245C68.2566 26.5546 68.0299 26.6484 67.8217 26.8061C67.6135 26.9639 67.4462 27.1816 67.3161 27.4558C67.186 27.7299 67.1302 28.0566 67.1488 28.4321L67.1451 28.4358Z" fill="white"/>
<path d="M75.3674 32.0216L75.4901 29.3331C75.4901 29.303 75.4901 29.2467 75.4826 29.1641C75.4789 29.0815 75.4715 28.9951 75.4603 28.905C75.4492 28.8149 75.4417 28.7285 75.438 28.6459C75.4343 28.5633 75.4269 28.507 75.4157 28.4769C75.386 28.3868 75.3414 28.2929 75.2856 28.1953C75.2298 28.0977 75.1629 28.0113 75.0811 27.9287C74.9993 27.8461 74.9101 27.7822 74.8098 27.7297C74.7094 27.6771 74.5978 27.6583 74.4789 27.6696C74.2967 27.6884 74.1406 27.7898 74.0105 27.9662C73.8803 28.1427 73.8023 28.3155 73.7837 28.4769L73.345 32.0817L73.1926 32.2357L72.029 32.0817C72.0178 31.9202 72.0327 31.755 72.0736 31.5936L72.3598 26.0812C72.3598 26.0099 72.3933 25.9385 72.4565 25.8672C72.5234 25.7959 72.5866 25.7546 72.6461 25.7433C72.8766 25.7245 73.1108 25.7546 73.3487 25.8409C73.5867 25.9273 73.7242 26.0887 73.7651 26.3216C73.7763 26.3216 73.7911 26.3216 73.8097 26.3291C73.8283 26.3328 73.8432 26.3366 73.8543 26.3366C73.977 26.3253 74.0848 26.2878 74.1852 26.2202C74.2856 26.1526 74.3897 26.0812 74.4938 25.9986C74.5978 25.916 74.7131 25.8447 74.8358 25.7771C74.9585 25.7095 75.0886 25.6719 75.2298 25.6607C75.5607 25.6306 75.8395 25.6607 76.0626 25.7508C76.2856 25.8409 76.4641 25.9723 76.5979 26.1413C76.7355 26.3103 76.8359 26.5093 76.9065 26.7459C76.9771 26.9787 77.0292 27.2303 77.0589 27.4931V27.8123L76.8173 31.7663C76.8173 31.8076 76.7987 31.8789 76.7578 31.9803C76.7169 32.0817 76.6686 32.138 76.6054 32.1493L75.3674 32.0104V32.0216Z" fill="white"/>
<path d="M89.9042 26.7838C89.9042 26.7838 89.9042 26.765 89.8967 26.7538C89.893 26.7425 89.8893 26.735 89.8893 26.7237V26.6937L89.722 20.5092V20.3027C89.722 20.2051 89.722 20.1037 89.7294 19.9986C89.7369 19.8934 89.7369 19.7883 89.7369 19.6944V19.4879C89.7369 19.4879 89.7369 19.4616 89.7443 19.4428C89.748 19.424 89.7517 19.4015 89.7517 19.3827C89.7406 19.3414 89.7294 19.2964 89.7146 19.2438C89.6997 19.1912 89.6514 19.1725 89.5696 19.1837L87.3762 19.4128C87.3056 19.424 87.2609 19.4053 87.2461 19.3602C87.2312 19.3151 87.2163 19.2776 87.2089 19.2476C87.168 18.9509 87.1494 18.6392 87.1494 18.3088C87.1494 17.9784 87.1903 17.6592 87.2721 17.355C87.2907 17.3025 87.3279 17.2762 87.3762 17.2724C87.4282 17.2687 87.4728 17.2649 87.5137 17.2649L92.7742 17.2349L93.2575 17.1748C93.276 17.1748 93.2983 17.1936 93.3169 17.2274C93.3355 17.2649 93.3504 17.2875 93.3616 17.295C93.3616 17.3062 93.369 17.355 93.3839 17.4414C93.3987 17.5278 93.4062 17.5916 93.4062 17.6329C93.4471 17.907 93.4656 18.1586 93.4656 18.3802C93.4656 18.6017 93.4545 18.8908 93.4359 19.2363C93.4173 19.3076 93.395 19.3489 93.3764 19.3602C93.3578 19.3715 93.3169 19.3752 93.2537 19.3752C92.9526 19.4165 92.6589 19.4128 92.3764 19.3602C92.0938 19.3076 91.8076 19.2926 91.5139 19.3151C91.4247 19.3339 91.3652 19.3677 91.3392 19.4128C91.3131 19.4578 91.302 19.5217 91.302 19.6043L91.4395 26.6599C91.4098 26.72 91.3578 26.765 91.2797 26.7988C91.2053 26.8289 91.1273 26.8514 91.0455 26.8589C90.9637 26.8702 90.8856 26.8777 90.8038 26.8814C90.722 26.8852 90.6663 26.8927 90.6365 26.904C90.618 26.904 90.5845 26.904 90.5399 26.9115C90.4953 26.9152 90.4432 26.919 90.3875 26.919C90.3317 26.919 90.2834 26.919 90.235 26.9265C90.1867 26.934 90.1607 26.934 90.1532 26.934C90.0938 26.934 90.0343 26.9227 89.9785 26.8965C89.9228 26.8702 89.8967 26.8364 89.8967 26.7988L89.9042 26.7838Z" fill="white"/>
<path d="M97.6587 26.6908C97.6178 26.4655 97.6067 26.2402 97.6215 26.0111C97.6364 25.7821 97.655 25.5492 97.6736 25.3164C97.6922 25.0836 97.7108 24.8508 97.7256 24.6218C97.7405 24.3927 97.7256 24.1599 97.6885 23.9271C97.6699 23.7731 97.6364 23.6342 97.5992 23.5065C97.5583 23.3789 97.5026 23.27 97.4245 23.1798C97.3502 23.0897 97.2535 23.0221 97.1383 22.9808C97.023 22.9395 96.8743 22.9283 96.6921 22.9508C96.3984 22.9921 96.2088 23.1123 96.1159 23.3188C96.0267 23.5216 95.9784 23.7656 95.9784 24.0435C95.9784 24.3214 96.0044 24.6293 96.0527 24.9597C96.1047 25.2901 96.1271 25.5943 96.1271 25.8759C96.1271 26.1576 96.0787 26.3979 95.9821 26.6006C95.8854 26.8034 95.6921 26.9273 95.3984 26.9686C95.2683 26.9874 95.1345 27.0024 95.0043 27.0062C94.8742 27.0099 94.7478 26.9574 94.6251 26.8447C94.6251 26.8147 94.6214 26.7659 94.6103 26.6983C94.5991 26.6307 94.5917 26.5856 94.5805 26.5518C94.521 25.8196 94.4578 25.0311 94.3909 24.1862C94.324 23.3413 94.2608 22.5077 94.2013 21.6891C94.1418 20.8705 94.0861 20.0933 94.034 19.361C93.982 18.6288 93.9374 18.0017 93.8965 17.4835C93.8556 16.9654 93.8296 16.5786 93.8147 16.3308C93.7998 16.0829 93.7961 16.0341 93.8073 16.1843C93.7961 16.1017 93.8296 16.0304 93.9039 15.9628C93.9783 15.8952 94.0563 15.8539 94.1381 15.8313C94.2385 15.8201 94.3761 15.8839 94.5545 16.0153C94.7292 16.1468 94.9114 16.3007 95.0898 16.4735C95.272 16.6462 95.4319 16.8189 95.5657 16.9841C95.7032 17.1531 95.7813 17.262 95.7999 17.3108C95.7999 17.3221 95.7999 17.3333 95.8073 17.3484C95.8111 17.3634 95.8148 17.3784 95.8148 17.3859C95.785 17.5699 95.7479 17.8478 95.7107 18.2195C95.6698 18.5913 95.6363 18.9893 95.6066 19.4098C95.5769 19.8342 95.5583 20.2359 95.5545 20.6227C95.5508 21.0095 95.5657 21.3099 95.6066 21.5239C95.6177 21.5765 95.6475 21.599 95.6958 21.599H95.8334C95.852 21.599 95.8743 21.599 95.8928 21.5915C95.9114 21.5877 95.9263 21.584 95.9375 21.584C96.1494 21.3887 96.3501 21.216 96.5434 21.0583C96.7367 20.9006 96.9784 20.8029 97.2684 20.7616C97.5286 20.7316 97.7554 20.7842 97.9487 20.9231C98.1383 21.062 98.2981 21.2385 98.4245 21.4563C98.5509 21.6741 98.6476 21.9069 98.7182 22.151C98.7889 22.3951 98.8409 22.6091 98.8707 22.7931C98.9933 23.4652 99.0268 24.1449 98.9748 24.832C98.9227 25.5192 98.8781 26.1951 98.8372 26.856C98.8186 26.9273 98.7703 26.9649 98.6996 26.9686C98.629 26.9724 98.5844 26.9799 98.5621 26.9912C98.4803 27.0099 98.3911 27.025 98.2907 27.0287C98.1903 27.0325 98.0937 27.0287 98.0044 27.0062C97.9152 26.9874 97.8334 26.9499 97.7628 26.901C97.6922 26.8485 97.6513 26.7771 97.6401 26.687L97.6587 26.6908Z" fill="white"/>
<path d="M99.6992 24.5839C99.6992 24.3586 99.7104 24.0995 99.7364 23.8067C99.7624 23.51 99.8108 23.2021 99.8888 22.8829C99.9632 22.5638 100.067 22.2483 100.197 21.9367C100.327 21.625 100.499 21.3509 100.703 21.1106C100.911 20.8703 101.157 20.675 101.443 20.521C101.729 20.3671 102.071 20.292 102.461 20.292C102.974 20.292 103.398 20.4159 103.733 20.66C104.067 20.9041 104.331 21.2082 104.528 21.5687C104.725 21.9292 104.859 22.3084 104.937 22.7064C105.012 23.1045 105.053 23.4537 105.053 23.7616C105.053 23.7804 105.053 23.8855 105.06 24.0658C105.064 24.2497 105.06 24.4488 105.038 24.6703C105.019 24.8881 104.975 25.0871 104.908 25.2673C104.841 25.4476 104.744 25.5339 104.614 25.5339H101.893C101.822 25.5339 101.77 25.5527 101.74 25.5865C101.71 25.6241 101.688 25.6616 101.681 25.7104C101.67 25.7555 101.666 25.8006 101.666 25.8494V25.947C101.666 26.161 101.733 26.3338 101.87 26.4652C102.008 26.5966 102.157 26.713 102.324 26.8106C102.491 26.9083 102.644 27.0021 102.785 27.0923C102.926 27.1824 102.997 27.2913 102.997 27.4114C102.997 27.4828 102.978 27.5654 102.937 27.663C102.896 27.7607 102.844 27.8545 102.777 27.9446C102.71 28.0348 102.632 28.1136 102.536 28.1737C102.439 28.2338 102.335 28.2638 102.227 28.2638C101.662 28.2638 101.216 28.1324 100.881 27.8658C100.547 27.5992 100.294 27.2763 100.119 26.897C99.9446 26.514 99.8293 26.1122 99.7773 25.6917C99.7253 25.2711 99.7029 24.8994 99.7029 24.5839H99.6992ZM101.558 23.1345C101.558 23.3485 101.565 23.5363 101.58 23.6978C101.595 23.8592 101.64 24.0019 101.71 24.1183C101.781 24.2347 101.893 24.3211 102.041 24.3774C102.194 24.4337 102.409 24.46 102.692 24.46C102.822 24.46 102.978 24.4563 103.153 24.445C103.328 24.4337 103.454 24.3849 103.525 24.291C103.525 24.2497 103.525 24.1746 103.532 24.062C103.536 23.9493 103.54 23.878 103.54 23.848C103.54 23.7053 103.54 23.5213 103.532 23.2922C103.528 23.0632 103.495 22.8416 103.435 22.6276C103.376 22.4136 103.276 22.2296 103.142 22.0794C103.004 21.9254 102.807 21.8503 102.543 21.8503C102.302 21.8503 102.116 21.8916 101.986 21.9742C101.855 22.0568 101.759 22.1582 101.699 22.2859C101.64 22.4136 101.603 22.5525 101.584 22.7064C101.569 22.8604 101.562 23.0031 101.562 23.1345H101.558Z" fill="white"/>
<path d="M119.752 33.0301C119.083 33.3043 118.552 33.2254 118.154 32.7861C117.756 32.3467 117.347 31.4981 116.927 30.2327C116.507 28.9672 115.972 27.2475 115.328 25.0696C114.685 22.8917 113.767 20.1881 112.577 16.9588C112.403 16.9588 112.317 17.0076 112.317 17.109L111.016 31.2277C110.99 31.4268 110.93 31.6333 110.83 31.8473C110.73 32.0614 110.533 32.1665 110.235 32.1665H110.124C110.075 32.1665 109.901 32.1552 109.603 32.1289C109.306 32.1027 108.99 32.0801 108.655 32.0538C108.321 32.0276 108.005 32.005 107.707 31.9787C107.41 31.9525 107.235 31.9412 107.187 31.9412C107.112 31.9149 107.068 31.8098 107.057 31.622C107.046 31.4343 107.049 31.07 107.075 30.5331C107.101 29.9961 107.157 29.2301 107.243 28.2425C107.328 27.255 107.454 25.9257 107.614 24.2623C107.774 22.5988 107.975 20.5561 108.209 18.1416C108.443 15.7272 108.722 12.8283 109.046 9.44885C109.072 9.34746 109.139 9.21228 109.25 9.0358C109.362 8.85931 109.492 8.77295 109.64 8.77295C109.864 8.77295 110.191 8.80299 110.626 8.86682C111.061 8.93066 111.507 9.00951 111.964 9.1109C112.421 9.21228 112.845 9.31742 113.228 9.43007C113.611 9.54272 113.853 9.64786 113.953 9.74924L117.596 21.2019C117.644 21.3033 117.7 21.3897 117.763 21.4648C117.827 21.5399 117.905 21.5774 118.005 21.5774C118.128 21.5774 118.217 21.5136 118.265 21.3897L119.566 10.0872C119.641 9.91071 119.808 9.81308 120.068 9.78679C120.329 9.76051 120.544 9.74924 120.719 9.74924H121.518C121.804 9.74924 122.068 9.77553 122.318 9.82434C122.567 9.87316 122.775 9.96703 122.95 10.106C123.124 10.2449 123.21 10.4514 123.21 10.7255L120.459 32.3542C120.41 32.5044 120.329 32.6546 120.217 32.8048C120.106 32.955 119.949 33.0301 119.752 33.0301V33.0301Z" fill="#C4C4C4"/>
<path d="M123.285 24.7686C123.285 23.6158 123.534 22.4893 124.029 21.3891C124.523 20.2889 125.207 19.3051 126.073 18.4415C126.94 17.5778 127.951 16.8906 129.103 16.3762C130.256 15.8618 131.501 15.6064 132.839 15.6064C133.88 15.6064 134.802 15.8205 135.609 16.2448C136.416 16.6691 137.096 17.2211 137.654 17.897C138.211 18.5729 138.639 19.3314 138.936 20.1687C139.234 21.0061 139.382 21.8397 139.382 22.6658C139.382 23.9162 139.189 25.0577 138.806 26.0828C138.423 27.108 137.866 27.9979 137.133 28.7489C136.401 29.4999 135.505 30.0819 134.438 30.495C133.371 30.908 132.159 31.1145 130.795 31.1145C129.754 31.1145 128.776 30.9718 127.858 30.6827C126.94 30.3936 126.14 29.9805 125.46 29.4436C124.78 28.9066 124.244 28.242 123.861 27.4534C123.478 26.6649 123.285 25.7712 123.285 24.7686V24.7686ZM128.564 24.0552C128.613 24.8324 128.906 25.4708 129.438 25.9702C129.969 26.4696 130.672 26.7212 131.538 26.7212C132.654 26.7212 133.557 26.4283 134.252 25.8388C134.947 25.2492 135.319 24.4569 135.367 23.4544C135.393 22.4292 135.237 21.6032 134.903 20.9761C134.568 20.349 134.141 19.9059 133.62 19.6431C133.1 19.3802 132.531 19.2863 131.91 19.3614C131.289 19.4365 130.728 19.6693 130.219 20.0561C129.709 20.4429 129.297 20.9761 128.973 21.652C128.65 22.3279 128.516 23.1277 128.564 24.0552V24.0552Z" fill="#C4C4C4"/>
<path d="M150.014 31.5663C149.988 31.5663 149.969 31.5738 149.958 31.5851C149.947 31.5963 149.928 31.6039 149.902 31.6039C149.876 31.6301 149.854 31.6414 149.828 31.6414C149.631 31.7653 149.438 31.923 149.252 32.1108C149.066 32.2985 148.869 32.475 148.657 32.6365C148.445 32.7979 148.218 32.9481 147.969 33.0871C147.72 33.226 147.449 33.3049 147.151 33.3311C145.861 33.4325 144.835 33.256 144.066 32.8055C143.296 32.3549 142.698 31.7653 142.263 31.0406C141.828 30.3159 141.538 29.5086 141.389 28.6186C141.24 27.7287 141.129 26.8989 141.054 26.1216C140.932 24.92 140.868 23.7259 140.868 22.5356C140.868 21.3452 140.805 20.1399 140.683 18.912C140.731 18.6867 140.783 18.4915 140.831 18.33C140.88 18.1685 141.006 18.0108 141.203 17.8606C141.251 17.8343 141.363 17.8156 141.538 17.8043C141.712 17.793 141.835 17.7855 141.909 17.7855C142.553 17.7367 143.147 17.7743 143.694 17.8982C144.24 18.0221 144.538 18.3863 144.586 18.9871C144.66 19.7869 144.679 20.5755 144.642 21.3528C144.605 22.13 144.597 22.9186 144.623 23.7184C144.623 23.7672 144.631 23.8799 144.642 24.0563C144.653 24.2328 144.672 24.4206 144.698 24.6196C144.724 24.8186 144.742 25.0064 144.753 25.1828C144.765 25.3593 144.772 25.472 144.772 25.5208C144.82 25.671 144.891 25.8587 144.976 26.084C145.062 26.3093 145.173 26.5271 145.311 26.7412C145.449 26.9552 145.616 27.1242 145.813 27.2481C146.01 27.372 146.233 27.4246 146.482 27.3983C146.88 27.3495 147.122 27.1542 147.207 26.8163C147.293 26.4783 147.326 26.1967 147.3 25.9714L146.928 19.3626C146.928 19.2875 146.936 19.1749 146.947 19.0247C146.958 18.8745 146.984 18.713 147.021 18.5365C147.058 18.36 147.122 18.2098 147.207 18.0859C147.293 17.962 147.423 17.8869 147.597 17.8606L149.791 17.6729C149.939 17.6466 150.077 17.6992 150.2 17.8231C150.322 17.947 150.397 18.0596 150.423 18.161L151.278 24.7698C151.304 24.9688 151.334 25.2129 151.371 25.502C151.408 25.7911 151.482 26.0653 151.594 26.3281C151.705 26.591 151.873 26.805 152.096 26.9665C152.319 27.1279 152.627 27.1993 153.025 27.173C153.371 27.1467 153.627 27.0303 153.787 26.8163C153.947 26.6022 154.059 26.3581 154.122 26.084C154.185 25.8099 154.215 25.5283 154.215 25.2392V24.5445C154.215 24.3192 154.196 23.9137 154.159 23.3241C154.122 22.7346 154.085 22.1225 154.047 21.4842C154.01 20.8458 153.981 20.2375 153.954 19.663C153.928 19.0885 153.917 18.6867 153.917 18.4614C153.917 18.36 153.925 18.2061 153.936 17.992C153.947 17.778 153.992 17.5677 154.066 17.3537C154.14 17.1397 154.252 16.9519 154.401 16.7905C154.549 16.629 154.761 16.5351 155.033 16.5088L156.854 16.3586C157.126 16.3323 157.338 16.4074 157.486 16.5839C157.635 16.7604 157.739 16.9669 157.802 17.2035C157.865 17.4401 157.903 17.6841 157.914 17.9357C157.925 18.1873 157.932 18.36 157.932 18.4614C157.958 18.5853 157.977 18.7994 157.988 19.0998C157.999 19.4002 158.018 19.5879 158.044 19.663C158.092 20.2375 158.155 20.9134 158.23 21.6907C158.304 22.468 158.36 23.2866 158.397 24.1502C158.434 25.0139 158.423 25.885 158.36 26.7599C158.297 27.6348 158.163 28.4684 157.951 29.257C157.739 30.0455 157.423 30.7477 157.003 31.3598C156.583 31.9718 156.025 32.4412 155.33 32.7679C155.059 32.8918 154.836 32.9632 154.661 32.9744C154.486 32.9857 154.252 33.0045 153.954 33.0307C153.36 33.0796 152.85 33.0308 152.43 32.8806C152.01 32.7304 151.642 32.5539 151.334 32.3549C151.025 32.1558 150.765 31.9681 150.553 31.7916C150.341 31.6151 150.163 31.54 150.014 31.5663V31.5663Z" fill="#C4C4C4"/>
</svg>
