<?xml version="1.0" encoding="utf-8"?>
<!-- Generator: Adobe Illustrator 26.2.1, SVG Export Plug-In . SVG Version: 6.00 Build 0)  -->
<svg version="1.1" id="Layer_1" xmlns="http://www.w3.org/2000/svg" xmlns:xlink="http://www.w3.org/1999/xlink" x="0px" y="0px"
	 viewBox="0 0 60 60" style="enable-background:new 0 0 60 60;" xml:space="preserve">
<style type="text/css">
	.st0{fill:#969696;}
	.st1{fill:#006693;}
	.st2{fill:url(#SVGID_1_);}
	.st3{fill-rule:evenodd;clip-rule:evenodd;fill:#FFFFFF;}
</style>
<path class="st0" d="M60,30c0,16.6-13.4,30-30,30S0,46.6,0,30S13.4,0,30,0S60,13.4,60,30z"/>
<path class="st1" d="M53,30c0,12.7-10.3,23-23,23C17.3,53,7,42.7,7,30C7,17.3,17.3,7,30,7C42.7,7,53,17.3,53,30z"/>
<linearGradient id="SVGID_1_" gradientUnits="userSpaceOnUse" x1="7.7419" y1="65.9627" x2="36.6178" y2="21.9105" gradientTransform="matrix(1 0 0 -1 0 62)">
	<stop  offset="0" style="stop-color:#0078D7"/>
	<stop  offset="1" style="stop-color:#569DE5"/>
</linearGradient>
<path class="st2" d="M51.8,30c0,12-9.8,21.8-21.8,21.8S8.2,42,8.2,30C8.2,18,18,8.2,30,8.2S51.8,18,51.8,30z"/>
<path class="st3" d="M42.5,19.1l5.1,3l0.7,0.4l-5.7,3.3l-0.1,0.1l-5.8,3.4v-3.8c-3.4,0.4-6.4,1.9-8.8,4.1c-0.4,0.3-0.7,0.7-1,1
	c0,0-0.1,0.1-0.1,0.1c-0.1,0.1-0.2,0.2-0.2,0.3c-0.7,0.8-1.5,1.5-2.3,2.2c-2.9,2.5-6.3,4-9.9,4.7c-0.2,0-0.6,0.1-1,0.1
	c-0.3,0-0.6,0-0.8,0.1v-5.1c0.2,0,0.5-0.1,0.7-0.1c2.6-0.4,5.2-1.5,7.3-3.3c0.7-0.6,1.4-1.2,2-1.9C22.7,27.3,23,27,23,27
	c0.4-0.4,0.8-0.9,1.3-1.3c3.3-3.1,7.7-5.2,12.5-5.6v-4.4L42.5,19.1z M22.1,27.1c0.1-0.1,0.2-0.2,0.3-0.3l0.5-0.6
	c0.3-0.3,0.5-0.6,0.8-0.8c-2.8-2.2-6-3.7-9.4-4.3c-0.2,0-0.7-0.1-1.1-0.1h0l0,0c-0.3,0-0.6,0-0.7-0.1l0,5.1c0.2,0,0.5,0.1,0.7,0.1
	c2.4,0.4,4.8,1.4,6.8,2.9c0,0,0,0,0.1,0v0c0,0,0,0,0.1,0C20.9,28.3,21.6,27.7,22.1,27.1L22.1,27.1z M42.5,33l-5.7-3.3l-0.2,0.1v3.6
	c-3.1-0.4-6-1.7-8.3-3.6c0,0,0,0-0.1,0.1c-0.4,0.3-0.7,0.7-1,1l-0.1,0.1c-0.1,0.1-0.2,0.2-0.3,0.4c-0.7,0.8-1.4,1.5-2.3,2.2
	c3.3,2.9,7.4,4.8,12,5.2v4.4l5.8-3.4l5.1-3l0.7-0.4l-5.7-3.3L42.5,33L42.5,33z"/>
</svg>
