<?xml version="1.0" encoding="utf-8"?>
<!-- Generator: Adobe Illustrator 26.2.1, SVG Export Plug-In . SVG Version: 6.00 Build 0)  -->
<svg version="1.1" id="Layer_1" xmlns="http://www.w3.org/2000/svg" xmlns:xlink="http://www.w3.org/1999/xlink" x="0px" y="0px"
	 viewBox="0 0 30 30" style="enable-background:new 0 0 30 30;" xml:space="preserve">
<style type="text/css">
	.st0{fill:#231F20;}
	.st1{fill:url(#SVGID_1_);}
	.st2{fill:url(#SVGID_00000132070294832994736190000006869450418427389886_);}
	.st3{fill:#FFFFFF;}
</style>
<rect class="st0" width="30" height="30"/>
<linearGradient id="SVGID_1_" gradientUnits="userSpaceOnUse" x1="15.1718" y1="36.9848" x2="15.1718" y2="10.4112" gradientTransform="matrix(1 0 0 -1 0 32)">
	<stop  offset="0" style="stop-color:#808080"/>
	<stop  offset="1" style="stop-color:#000000"/>
</linearGradient>
<path class="st1" d="M1.9,26.7C1.9,28,3.2,29,4.8,29h20.8c1.6,0,2.9-1,2.9-2.3V3.3C28.4,2,27.1,1,25.6,1H4.8C3.2,1,1.9,2,1.9,3.3
	V26.7z"/>
<linearGradient id="SVGID_00000110464743322392443260000018133912299780419204_" gradientUnits="userSpaceOnUse" x1="15.1786" y1="32.1931" x2="15.1786" y2="7.2167" gradientTransform="matrix(1 0 0 -1 0 32)">
	<stop  offset="0" style="stop-color:#333333"/>
	<stop  offset="0.55" style="stop-color:#333333"/>
	<stop  offset="0.59" style="stop-color:#1A1A1A"/>
	<stop  offset="1" style="stop-color:#000000"/>
</linearGradient>
<path style="fill:url(#SVGID_00000110464743322392443260000018133912299780419204_);" d="M3.4,25.6c0,1.1,1.2,2,2.8,2h18
	c1.5,0,2.8-0.9,2.8-2V4.4c0-1.1-1.2-2-2.8-2h-18c-1.5,0-2.8,0.9-2.8,2V25.6L3.4,25.6z"/>
<path class="st3" d="M20.5,12.9c0-4.2-3.4-7.7-7.6-7.7c-4.2,0-7.6,3.4-7.6,7.7c0,4.2,3.4,7.7,7.6,7.7C17.1,20.6,20.5,17.1,20.5,12.9
	L20.5,12.9z M13,18.1c-2.8,0-5.1-2.3-5.1-5.1s2.3-5.1,5.1-5.1c2.8,0,5.1,2.3,5.1,5.1S15.8,18.1,13,18.1z"/>
<path class="st3" d="M19.5,18.4L17.6,20l4,4.7l1.9-1.6L19.5,18.4z"/>
</svg>
